<svg xmlns="http://www.w3.org/2000/svg" viewBox="0 0 323.13 190.8"><defs><style>.cls-1{fill:#fff;}.cls-2{fill:#231f20;}.cls-3,.cls-4{isolation:isolate;}.cls-4{font-size:41.51px;font-family:DonGraffitiRegular, Don Graffiti;}.cls-5{font-size:15.57px;}</style></defs><g id="Layer_2" data-name="Layer 2"><g id="Layer_1-2" data-name="Layer 1"><rect class="cls-1" y="21.21" width="323.13" height="169.6"/><path class="cls-1" d="M30.86,94.77a.59.59,0,0,0,.14.73l11,12.26a.36.36,0,0,0,.18.13.9.9,0,0,0,.78-.28L72.87,80.78a2.25,2.25,0,0,0,.42-.76,1.37,1.37,0,0,0-.12-1.14L62.62,67.16c-.11-.1-.45-.39-.79-.24a2.75,2.75,0,0,0-.53.44c-.15.13-.26.24-.34.32L31.2,94.39A1.09,1.09,0,0,0,30.86,94.77Z" transform="translate(0 21.21)"/><path class="cls-2" d="M42.34,109.41a1.9,1.9,0,0,1-.58-.09,1.72,1.72,0,0,1-.88-.61L30,96.57a2.09,2.09,0,0,1-.45-2.44h0a2.52,2.52,0,0,1,.74-.91L60,66.56l.32-.31a3.52,3.52,0,0,1,.95-.7,2.2,2.2,0,0,1,2.42.52l.09.09L74.43,78.07a2.88,2.88,0,0,1,.29,2.39A3.6,3.6,0,0,1,74,81.73l-.16.17L44,108.72A2.55,2.55,0,0,1,42.34,109.41ZM32.66,95.09,42.5,106,71.77,79.76l.06-.12L62,68.74h0Z" transform="translate(0 21.21)"/><polygon class="cls-1" points="38.43 115.42 37.95 114.89 58.51 96.28 58.99 96.82 38.43 115.42"/><polygon class="cls-2" points="38.32 117.55 35.84 114.78 58.62 94.16 61.11 96.93 38.32 117.55"/><path class="cls-1" d="M72.46,77.06,75,74.88l-1.71-1.94,3.69-3.44h0a1.86,1.86,0,0,0,.3-1.15c-.06-.6-.45-.9-1.45-2-1.39-1.52-1.49-1.86-2.06-2a2.14,2.14,0,0,0-1.7.39c-.54.46-1.07.93-1.61,1.42s-1.29,1.16-1.91,1.74l-1.42-1.58L64.8,68.37" transform="translate(0 21.21)"/><path class="cls-2" d="M73.44,78.19l-2-2.26,1.36-1.19-1.68-1.91,4.57-4.26s0,0,0-.07l-.57-.6-.49-.53c-.44-.48-.76-.86-1-1.14l-.37-.43a1,1,0,0,0-.38.15q-.75.64-1.5,1.32c-.65.58-1.28,1.16-1.89,1.73l-1.13,1L67,68.44l-1.17,1-2-2.23,3.4-3.06,1.4,1.57.8-.72L71,63.6l.16-.12a3.56,3.56,0,0,1,2.88-.58,3.31,3.31,0,0,1,1.86,1.38c.23.26.53.61.94,1.06l.47.5a3.89,3.89,0,0,1,1.37,2.36,3.28,3.28,0,0,1-.53,2.1l-.24.29L75.33,73l1.74,2Z" transform="translate(0 21.21)"/><ellipse class="cls-1" cx="74.68" cy="69.52" rx="0.95" ry="0.75" transform="translate(-27.33 88.71) rotate(-41.82)"/><path class="cls-2" d="M74.48,71.87a2.14,2.14,0,0,1-1.62-.71,2.21,2.21,0,0,1-.52-1.84,2.65,2.65,0,0,1,.84-1.48,2.37,2.37,0,0,1,3.33,0A2.17,2.17,0,0,1,77,69.72a2.64,2.64,0,0,1-2.39,2.15Zm0-3h0a.43.43,0,0,0-.26.1.42.42,0,0,0-.12.24.84.84,0,0,0,.22.68.71.71,0,0,0,.9.19.45.45,0,0,0,.12-.25.82.82,0,0,0-.21-.67A.84.84,0,0,0,74.48,68.87Z" transform="translate(0 21.21)"/><path class="cls-1" d="M60.77,108.61a.59.59,0,0,0,.73-.17L73.38,97a.44.44,0,0,0,.13-.18.93.93,0,0,0-.31-.78l-27.81-29a2.27,2.27,0,0,0-.77-.39,1.34,1.34,0,0,0-1.14.16L32.12,77.79a.76.76,0,0,0-.21.8,2.62,2.62,0,0,0,.45.52,4.48,4.48,0,0,0,.33.32l27.69,28.86A1,1,0,0,0,60.77,108.61Z" transform="translate(0 21.21)"/><path class="cls-2" d="M61,110.17a2.18,2.18,0,0,1-.86-.18h0a2.44,2.44,0,0,1-.92-.72L31.61,80.47l-.32-.31a3.54,3.54,0,0,1-.74-.92A2.21,2.21,0,0,1,31,76.8l.09-.09L42.63,65.62A2.88,2.88,0,0,1,45,65.25a3.7,3.7,0,0,1,1.3.65l.17.15L74.28,95A2.3,2.3,0,0,1,75,97.23a1.84,1.84,0,0,1-.58.91L62.6,109.46A2.06,2.06,0,0,1,61,110.17ZM33.71,78.34h0L61,106.81,71.64,96.6,44.4,68.23l-.12-.06Z" transform="translate(0 21.21)"/><polygon class="cls-1" points="59.97 122.27 59.45 122.77 40.16 102.84 40.68 102.34 59.97 122.27"/><polygon class="cls-2" points="59.41 124.89 38.04 102.8 40.72 100.22 62.09 122.31 59.41 124.89"/><path class="cls-1" d="M41.68,67.63l-2.26-2.42L37.53,67c-1.18-1.19-2.37-2.37-3.56-3.56h0a1.82,1.82,0,0,0-1.15-.27c-.6.08-.89.48-1.94,1.52-1.48,1.44-1.82,1.55-1.94,2.12a2.16,2.16,0,0,0,.44,1.69q.72.78,1.47,1.56c.61.64,1.21,1.26,1.81,1.86l-1.54,1.46,2.13,2.22" transform="translate(0 21.21)"/><path class="cls-2" d="M32.17,76.61,29,73.31l1.52-1.45-.75-.78c-.51-.53-1-1.06-1.49-1.58l-.13-.16a3.61,3.61,0,0,1-.68-2.86,3.43,3.43,0,0,1,1.32-1.91c.26-.23.59-.54,1-1l.48-.48a3.92,3.92,0,0,1,2.32-1.45,3.27,3.27,0,0,1,2.11.45l.3.24,2.54,2.53,1.92-1.81,3.29,3.53-2.2,2-1.23-1.32L37.5,69.07l-4.42-4.42H33l-.59.6-.5.5c-.48.46-.84.79-1.11,1l-.42.39a1,1,0,0,0,.16.38L31.94,69l1.78,1.83,1.09,1.08-1.56,1.49,1.08,1.13Z" transform="translate(0 21.21)"/><ellipse class="cls-1" cx="34.07" cy="65.66" rx="0.75" ry="0.95" transform="matrix(0.72, -0.69, 0.69, 0.72, -35.94, 62.97)"/><path class="cls-2" d="M34.27,68a2.53,2.53,0,0,1-1.82-.8h0a2.57,2.57,0,0,1-.72-1.53,2.16,2.16,0,0,1,2.19-2.4,2.64,2.64,0,0,1,1.78.8,2.39,2.39,0,0,1,.08,3.34A2.19,2.19,0,0,1,34.27,68Zm-.73-1.84a.46.46,0,0,0,.32.11.82.82,0,0,0,.59-.24.8.8,0,0,0,.26-.65.41.41,0,0,0-.1-.26ZM34.27,65a.83.83,0,0,0-.57.25.69.69,0,0,0-.17.9h0l1.07-1A.45.45,0,0,0,34.27,65Z" transform="translate(0 21.21)"/><path class="cls-1" d="M31.88,145a.59.59,0,0,0,.14.73l11,12.25a.4.4,0,0,0,.18.14.88.88,0,0,0,.78-.29L73.89,131a2.35,2.35,0,0,0,.42-.76,1.37,1.37,0,0,0-.12-1.14q-5.28-5.86-10.55-11.72a.77.77,0,0,0-.79-.24,3,3,0,0,0-.53.43l-.34.32L32.22,144.6A1.05,1.05,0,0,0,31.88,145Z" transform="translate(0 21.21)"/><path class="cls-2" d="M43.36,159.63a1.9,1.9,0,0,1-.58-.09,1.85,1.85,0,0,1-.88-.61L31,146.79a2.1,2.1,0,0,1-.45-2.44,2.55,2.55,0,0,1,.75-.91L61,116.78l.33-.31a3.27,3.27,0,0,1,.94-.71,2.22,2.22,0,0,1,2.42.52l.09.09,10.69,11.91a2.85,2.85,0,0,1,.29,2.39,3.55,3.55,0,0,1-.69,1.28l-.16.16L45,158.94A2.53,2.53,0,0,1,43.36,159.63Zm-9.68-14.32,9.84,10.94L72.79,130s0-.08.06-.11L63,119Z" transform="translate(0 21.21)"/><polygon class="cls-1" points="39.45 165.64 38.97 165.1 59.53 146.5 60.02 147.03 39.45 165.64"/><polygon class="cls-2" points="39.34 167.76 36.85 165 59.64 144.38 62.13 147.14 39.34 167.76"/><path class="cls-1" d="M73.48,127.27,76,125.1l-1.71-1.95L78,119.71h0a1.81,1.81,0,0,0,.3-1.14c-.06-.61-.45-.91-1.45-2-1.39-1.52-1.49-1.87-2.06-2A2.18,2.18,0,0,0,73,115l-1.61,1.42c-.66.59-1.29,1.17-1.92,1.75l-1.41-1.59-2.28,2" transform="translate(0 21.21)"/><path class="cls-2" d="M74.46,128.4l-2-2.26L73.85,125l-1.68-1.91,4.57-4.27a.39.39,0,0,0,0-.06s-.33-.34-.58-.61l-.49-.52c-.44-.49-.76-.86-1-1.14s-.29-.34-.38-.43a1.12,1.12,0,0,0-.38.14l-1.5,1.33c-.65.58-1.28,1.15-1.89,1.72l-1.13,1.05L68,118.65l-1.16,1-2-2.23,3.41-3.06L69.62,116l.8-.72,1.63-1.44.17-.12a3.61,3.61,0,0,1,2.88-.59A3.38,3.38,0,0,1,77,114.5c.23.26.53.61.94,1.06l.47.5a3.91,3.91,0,0,1,1.37,2.36,3.25,3.25,0,0,1-.53,2.09l-.24.3-2.62,2.45,1.74,2Z" transform="translate(0 21.21)"/><ellipse class="cls-1" cx="75.7" cy="119.74" rx="0.95" ry="0.75" transform="translate(-60.55 102.18) rotate(-41.82)"/><path class="cls-2" d="M75.5,122.08a2.14,2.14,0,0,1-1.62-.7,2.17,2.17,0,0,1-.52-1.84,2.65,2.65,0,0,1,.84-1.48h0a2.36,2.36,0,0,1,3.33,0,2.15,2.15,0,0,1,.54,1.56,2.62,2.62,0,0,1-2.57,2.42Zm-.3-2.9a.53.53,0,0,0-.13.33.89.89,0,0,0,.23.6.71.71,0,0,0,.9.18Zm0,0,1,1.11a.42.42,0,0,0,.12-.24.83.83,0,0,0-.21-.68.71.71,0,0,0-.9-.19Z" transform="translate(0 21.21)"/><path class="cls-1" d="M61.79,158.83a.59.59,0,0,0,.73-.17L74.4,147.23a.46.46,0,0,0,.13-.19.92.92,0,0,0-.31-.77l-27.81-29a2.1,2.1,0,0,0-.77-.39,1.4,1.4,0,0,0-1.14.15L33.14,128a.76.76,0,0,0-.21.8,2.68,2.68,0,0,0,.45.51c.13.14.25.25.33.33L61.4,158.5A1,1,0,0,0,61.79,158.83Z" transform="translate(0 21.21)"/><path class="cls-2" d="M62.06,160.39a2,2,0,0,1-.86-.19h0a2.3,2.3,0,0,1-.93-.71l-27.64-28.8-.33-.32a3.49,3.49,0,0,1-.72-.91A2.2,2.2,0,0,1,32,127l.1-.09,11.55-11.09a2.84,2.84,0,0,1,2.37-.37,3.54,3.54,0,0,1,1.3.65l.17.15,27.81,29a2.33,2.33,0,0,1,.67,2.23,1.82,1.82,0,0,1-.58.89L63.62,159.68A2.06,2.06,0,0,1,62.06,160.39ZM34.73,128.55h0L62.06,157l10.6-10.2L45.42,118.45l-.12-.07Z" transform="translate(0 21.21)"/><polygon class="cls-1" points="60.99 172.49 60.47 172.99 41.18 153.06 41.7 152.56 60.99 172.49"/><polygon class="cls-2" points="60.43 175.1 39.06 153.02 41.74 150.44 63.11 172.53 60.43 175.1"/><path class="cls-1" d="M42.7,117.85l-2.26-2.42-1.89,1.77L35,113.63h0a1.82,1.82,0,0,0-1.15-.26c-.6.08-.89.48-1.94,1.51-1.48,1.45-1.82,1.55-1.94,2.13a2.17,2.17,0,0,0,.44,1.69c.48.51,1,1,1.47,1.56s1.21,1.25,1.81,1.85l-1.54,1.46,2.13,2.22" transform="translate(0 21.21)"/><path class="cls-2" d="M33.19,126.83,30,123.53l1.52-1.45-.75-.78c-.51-.53-1-1.06-1.49-1.58l-.13-.16a3.62,3.62,0,0,1-.68-2.86,3.4,3.4,0,0,1,1.32-1.91c.26-.24.6-.55,1-1l.47-.47a3.94,3.94,0,0,1,2.32-1.46,3.28,3.28,0,0,1,2.11.46l.3.23,2.54,2.54,1.92-1.81,3.29,3.52-2.2,2.05-1.23-1.32-1.85,1.74-4.41-4.42H34l-.59.59L33,116c-.48.46-.83.79-1.11,1l-.42.39a.94.94,0,0,0,.16.37c.45.49.91,1,1.38,1.46s1.19,1.24,1.78,1.83l1.09,1.09-1.56,1.48,1.08,1.13Z" transform="translate(0 21.21)"/><ellipse class="cls-1" cx="35.09" cy="115.87" rx="0.75" ry="0.95" transform="translate(-70.37 77.61) rotate(-43.73)"/><path class="cls-2" d="M35.29,118.23a2.54,2.54,0,0,1-1.82-.79h0a2.38,2.38,0,0,1-.08-3.34,2.22,2.22,0,0,1,1.55-.59,2.6,2.6,0,0,1,1.78.8,2.63,2.63,0,0,1,.72,1.54,2.14,2.14,0,0,1-2.15,2.38Zm-.73-1.84h0a.43.43,0,0,0,.32.12,1,1,0,0,0,.59-.24.7.7,0,0,0,.16-.91Zm.74-1.15a.87.87,0,0,0-.85.9.41.41,0,0,0,.11.25l1.07-1A.45.45,0,0,0,35.3,115.24Z" transform="translate(0 21.21)"/><circle class="cls-2" cx="81.37" cy="92.95" r="2.09"/><circle class="cls-2" cx="83.63" cy="97.76" r="2.09"/><circle class="cls-2" cx="86.62" cy="93.12" r="2.09"/><circle class="cls-2" cx="93.24" cy="93.29" r="2.09"/><circle class="cls-2" cx="90.43" cy="97.63" r="2.09"/><circle class="cls-2" cx="87.24" cy="102.57" r="2.09"/><circle class="cls-2" cx="100" cy="93.47" r="2.09"/><circle class="cls-2" cx="96.74" cy="98.52" r="2.09"/><circle class="cls-2" cx="93.34" cy="103.78" r="2.09"/><circle class="cls-2" cx="89.94" cy="109.04" r="2.09"/><path class="cls-1" d="M32.29,40.18a.56.56,0,0,0,.14.72l11,12.26a.35.35,0,0,0,.18.14.92.92,0,0,0,.78-.29L74.3,26.18a2.12,2.12,0,0,0,.41-.75,1.32,1.32,0,0,0-.12-1.14L64.05,12.56a.79.79,0,0,0-.79-.23,2.55,2.55,0,0,0-.53.43c-.15.13-.27.25-.34.32L32.62,39.79A1,1,0,0,0,32.29,40.18Z" transform="translate(0 21.21)"/><path class="cls-2" d="M43.76,54.82a1.84,1.84,0,0,1-.57-.09,1.87,1.87,0,0,1-.89-.62L31.37,42a2.11,2.11,0,0,1-.44-2.44,2.4,2.4,0,0,1,.75-.9L61.39,12s.16-.16.32-.31a3.56,3.56,0,0,1,.94-.71,2.2,2.2,0,0,1,2.42.52l.09.09,10.7,11.92a2.86,2.86,0,0,1,.29,2.38,3.9,3.9,0,0,1-.69,1.28l-.16.16L45.42,54.13A2.51,2.51,0,0,1,43.76,54.82ZM34.08,40.5l9.85,10.94L73.19,25.16a.88.88,0,0,0,.07-.12l-9.81-10.9h0Z" transform="translate(0 21.21)"/><polygon class="cls-1" points="39.86 60.83 39.38 60.29 59.94 41.69 60.42 42.22 39.86 60.83"/><polygon class="cls-2" points="39.75 62.95 37.26 60.19 60.05 39.56 62.53 42.33 39.75 62.95"/><path class="cls-1" d="M73.88,22.46l2.5-2.17-1.71-1.95,3.68-3.44h0a1.76,1.76,0,0,0,.3-1.14c-.06-.61-.45-.91-1.45-2-1.39-1.52-1.48-1.86-2.06-2a2.2,2.2,0,0,0-1.7.38l-1.61,1.42c-.65.59-1.29,1.17-1.91,1.75l-1.41-1.59-2.29,2" transform="translate(0 21.21)"/><path class="cls-2" d="M74.87,23.59l-2-2.26,1.36-1.18-1.68-1.91L77.15,14a.18.18,0,0,0,0-.06l-.58-.61-.48-.52c-.45-.49-.77-.86-1-1.14s-.28-.34-.37-.43a.89.89,0,0,0-.38.14c-.5.43-1,.88-1.51,1.33L70.94,14.4l-1.12,1-1.43-1.61-1.16,1.05-2-2.23L68.63,9.6,70,11.17l.8-.73L72.46,9l.16-.12a3.64,3.64,0,0,1,2.89-.59,3.39,3.39,0,0,1,1.86,1.38c.22.27.52.61.94,1.07l.46.5a3.9,3.9,0,0,1,1.38,2.36,3.27,3.27,0,0,1-.53,2.09l-.24.3-2.62,2.44,1.74,2Z" transform="translate(0 21.21)"/><ellipse class="cls-1" cx="76.11" cy="14.93" rx="0.95" ry="0.75" transform="translate(9.43 75.75) rotate(-41.82)"/><path class="cls-2" d="M75.91,17.28a2.2,2.2,0,0,1-1.63-.71,2.17,2.17,0,0,1-.51-1.84,2.6,2.6,0,0,1,.83-1.48,2.37,2.37,0,0,1,3.33,0,2.18,2.18,0,0,1,.55,1.57,2.57,2.57,0,0,1-.87,1.75,2.5,2.5,0,0,1-1.55.67Zm0-3h0a.41.41,0,0,0-.26.09.52.52,0,0,0-.13.32.83.83,0,0,0,.23.6.7.7,0,0,0,.9.19.42.42,0,0,0,.12-.25.86.86,0,0,0-.82-1Z" transform="translate(0 21.21)"/><path class="cls-1" d="M62.2,54a.59.59,0,0,0,.72-.17L74.8,42.41a.28.28,0,0,0,.13-.18.89.89,0,0,0-.31-.77l-27.81-29a2.26,2.26,0,0,0-.77-.4,1.38,1.38,0,0,0-1.14.16L33.54,23.2a.77.77,0,0,0-.21.79,2.69,2.69,0,0,0,.45.52l.33.33,27.7,28.85A1,1,0,0,0,62.2,54Z" transform="translate(0 21.21)"/><path class="cls-2" d="M62.47,55.57a2,2,0,0,1-.86-.18h0a2.43,2.43,0,0,1-.92-.71L33,25.88s-.17-.16-.32-.32a3.3,3.3,0,0,1-.73-.91,2.19,2.19,0,0,1,.44-2.44l.08-.1L44.06,11a2.91,2.91,0,0,1,2.37-.37,3.9,3.9,0,0,1,1.3.66l.16.15,27.81,29a2.35,2.35,0,0,1,.68,2.22,1.85,1.85,0,0,1-.58.9L64,54.87A2.09,2.09,0,0,1,62.47,55.57ZM35.14,23.74h0L62.46,52.21,73.07,42,45.83,13.63l-.12-.06Z" transform="translate(0 21.21)"/><polygon class="cls-1" points="61.39 67.67 60.87 68.17 41.59 48.24 42.11 47.74 61.39 67.67"/><polygon class="cls-2" points="60.84 70.29 39.47 48.2 42.15 45.63 63.52 67.71 60.84 70.29"/><path class="cls-1" d="M43.11,13c-.76-.8-1.51-1.61-2.26-2.42L39,12.39,35.4,8.82h0a1.76,1.76,0,0,0-1.15-.26c-.61.08-.89.48-2,1.51-1.47,1.45-1.81,1.55-1.94,2.13a2.21,2.21,0,0,0,.45,1.69l1.47,1.56c.61.63,1.21,1.25,1.81,1.85l-1.54,1.46L34.68,21" transform="translate(0 21.21)"/><path class="cls-2" d="M33.59,22l-3.17-3.31L32,17.26l-.75-.77c-.51-.53-1-1.06-1.49-1.58l-.13-.16a3.6,3.6,0,0,1-.68-2.87A3.36,3.36,0,0,1,30.22,10c.25-.24.59-.55,1-1l.48-.48a3.91,3.91,0,0,1,2.32-1.45,3.28,3.28,0,0,1,2.11.46l.3.23L39,10.3l1.93-1.81L44.2,12,42,14.06l-1.23-1.32-1.85,1.74-4.42-4.43h-.07s-.32.34-.58.6l-.51.5c-.47.47-.83.8-1.1,1l-.42.39A.86.86,0,0,0,32,13c.44.48.9,1,1.37,1.46s1.2,1.24,1.79,1.83l1.08,1.09-1.56,1.48,1.09,1.13Z" transform="translate(0 21.21)"/><ellipse class="cls-1" cx="35.5" cy="11.06" rx="0.75" ry="0.95" transform="translate(2.2 48.82) rotate(-43.73)"/><path class="cls-2" d="M35.7,13.43h-.05a2.64,2.64,0,0,1-1.78-.8h0a2.36,2.36,0,0,1-.07-3.33,2.15,2.15,0,0,1,1.54-.59,2.52,2.52,0,0,1,1.78.8,2.37,2.37,0,0,1,.08,3.33A2.13,2.13,0,0,1,35.7,13.43ZM35,11.58a.47.47,0,0,0,.33.12.93.93,0,0,0,.59-.25.7.7,0,0,0,.16-.9Zm.74-1.15a.86.86,0,0,0-.58.24.71.71,0,0,0-.16.91h0l1.08-1a.43.43,0,0,0-.33-.12Z" transform="translate(0 21.21)"/><g id="Start_with_art" data-name="Start with art" class="cls-3"><text class="cls-4" transform="translate(109.29 117.88) scale(0.96 1)">Start with art<tspan class="cls-5"><tspan x="0" y="18.68">AMsterdam</tspan></tspan></text><text y="21.21"/></g></g></g></svg>