<svg xmlns="http://www.w3.org/2000/svg" viewBox="0 0 297.17 241.33"><defs><style>.cls-1{fill:#71cbec;}.cls-2{fill:#f47d6d;stroke:#fed9ae;}.cls-2,.cls-3,.cls-4,.cls-5,.cls-6,.cls-7,.cls-8,.cls-9{stroke-miterlimit:10;}.cls-3{fill:#f15757;}.cls-3,.cls-4,.cls-5,.cls-6,.cls-7,.cls-8,.cls-9{stroke:#231f20;}.cls-3,.cls-4,.cls-5{stroke-width:0.5px;}.cls-4,.cls-6,.cls-8{fill:#fff;}.cls-5,.cls-7,.cls-9{fill:none;}.cls-8,.cls-9{stroke-width:0.75px;}</style></defs><g id="Layer_2" data-name="Layer 2"><g id="Layer_1-2" data-name="Layer 1"><path class="cls-1" d="M2.21,12.84H296.67V240.26L.78,240.83Q1.5,126.83,2.21,12.84Z"/><path class="cls-2" d="M.78,240.83H83.4l2.76-44.71L49.91,164.65l-8.83-22.08-39.75,19Q1.06,201.18.78,240.83Z"/><path class="cls-2" d="M193.2,240.46q-7.53-18.61-15.07-37.22L150.4,213.47H110.58L92,199.7q-1,20.19-2,40.39"/><path class="cls-2" d="M296.67,240.27l-1.12-97.14-3.72.37-40.38,33.31-67.74,25.13,15.63,38"/><path class="cls-2" d="M236.19,172l-9.86-5.77-48,15.63-3.72-9.49-2.79.18,9.86,24.38,65.88-23.07,42.06-35.36-10.05-.56L257.4,125.08l-7.25,10.24L268.38,147Z"/><path class="cls-2" d="M166.78,174.58q4.92,12.46,9.86,24.94l-34.43,10.23-32.75-1.86L54.93,160.25c-.55-1.67-1.11-3.35-1.67-5L68.15,147,91.59,175l41.32,9.49.18,11.36-28.47-3.17L77.27,169.18l-3,3.17,27.54,24.38,36.66,4.09q-.09-8.46-.19-16.93Z"/><path class="cls-2" d="M137.93,168.44l.37,10.05,26.24-8.37-2.79-8.56Z"/><path class="cls-2" d="M166.78,159.14q1.66,4.56,3.35,9.11l37.59-12.46-9.49-6.14Z"/><path class="cls-2" d="M179.06,170.3q1.2,2.79,2.42,5.58l38.7-12.65L214,159.14Z"/><path class="cls-2" d="M79.13,140.53l-6,3.72q10.6,13.22,21.22,26.42l38.15,8.94-.38-10.05-31.63-8Z"/><path class="cls-2" d="M132.54,157.46q-.1,3.16-.19,6.33l-30-6.89-18.24-19,2.79-1.67,18.61,15.81Z"/><path class="cls-2" d="M137,157.65l.93,5.39,22-6.51q-1.3-2.79-2.6-5.58Z"/><path class="cls-2" d="M163.35,149.44l1.68,5,26.87-8-8-4.2Z"/><path class="cls-2" d="M190.22,138.52,235.14,165l23.51-18.47L210,119.21Z"/><path class="cls-2" d="M245.64,132.22l6.3-10.91-29.39-16.79-6.72-4.62,2.1-23.09-3.16-.43q-2,9.24-3.94,18.47l-17.61-4.8L169,62.22l-48,57.5,8.13,10.1,21.68-34.36,3.81,1.73-7.26,14.65,12.64,5.22a4,4,0,0,1,.16.45c2.08,6.4-5.31,14.38-10.46,19.08l9.6,4.07c.54,1.31,1.07,2.62,1.6,3.94a69.75,69.75,0,0,0,22.78-7.14,70.57,70.57,0,0,0,26-23.28Z"/><path class="cls-2" d="M1.57,96.66l11.55-3.3,11.55,50.16L1.57,154.41"/><path class="cls-2" d="M26,89.4,24.34,93l15.18,43.23-10.23,4.62L18.07,91.71Z"/><path class="cls-2" d="M78.46,12.84,93,27.36,67.24,72.57,64.6,142.86l-13.53,6.93L30,93.69,58.33,13.5"/><path class="cls-2" d="M96.61,29l2.64,2.64L77.8,75.21l-3,61.05-4.62,3,1-64Z"/><path class="cls-2" d="M113.44,36.93l-7.59-1.32L83.08,74.88l-3.63,57.75,5.28-1L89,76.53Z"/><path class="cls-2" d="M121.36,40.23l-5.28-1L94,78.51l-4.29,50.82,17.82,19.14,26.73,4.29,22.11-7.59-16.17-4.95-37.95-1L92,125.37,97.6,77.85Z"/><path class="cls-2" d="M296.14,64.12c-10.42-3.46-21.48-6.81-33.14-10q-14-3.77-27.18-6.62l-15.91-5q-1.16,2.16-2.32,4.31,8.55,5.28,8,6.63-1.5,3.5-64-19.22L135.73,13.74H106.57l-5.64,10.94,27.36,14.23L103.21,77.52,96.94,122.4,104.86,134l19.47,1.65-8.91-14.19a200.46,200.46,0,0,1,24.29-33.76c13.63-15.25,27-25.39,24.55-30.26-1.19-2.32-5.51-2.5-8.91-2.31-8.5,12.52-12.48,14.62-14.52,13.86s-3.08-4.26-2.31-6.93c1.21-4.18,6.44-3.69,7.49-7.17,1.35-4.47-5.42-11.55-10.4-15.11-3.37-2.42-6.25-3.47-6.33-5.77-.06-1.85,1.7-3.82,3.63-4.29,2.26-.54,4.6,1,8.55,5a92,92,0,0,1,11.91,14.78l16.83,3,6.27,6.6,8.72,4.42,10.09,5.15c10-1.64,13.05-3.54,13.2-5.28.11-1.31-1.44-2.4-1-3.3.58-1.17,3.89-.75,7.26,0a58.3,58.3,0,0,1,13.86-1.65c5.14,0,9.48.73,28.75,6.86,18.18,5.8,22,7.62,25.68,9.76a79.11,79.11,0,0,1,13.16,9.59q-4.09,5-8.2,10.09l-25.41,24.75-3-3c7.59-5.12,8.91-8.6,8.58-10.89-.29-2-2-3.77-1.32-4.62s3.39,0,5.43.87L285.48,85.4l-12-2.93L248.09,109a2.46,2.46,0,0,1-3.5.61,2.37,2.37,0,0,1-.47-2.67L267.87,79.5l-2-4L228,66.63l-.66,18.81,6.6-1,3.63,4.29-2.64,4-1,7.59-5.28,3,53.45,30.36,13.86-.66Q296,98.54,296.14,64.12Z"/><path class="cls-2" d="M52.87,12.75q-12.75,34.8-25.52,69.6L1.83,92,.51,11.75Z"/><path class="cls-2" d="M87.67,12.41,96,21.69l4.31-8.61Z"/><path class="cls-3" d="M62.49,129.2,55.1,116.88a6.7,6.7,0,0,1-.62-2.94c.09-3.42,3.09-7.65,7.71-7.74s7.71,4,8,7.36a6.82,6.82,0,0,1-.46,3Z"/><ellipse class="cls-4" cx="62.34" cy="112.56" rx="4.91" ry="4.47"/><line class="cls-5" x1="59.69" y1="110.34" x2="61.56" y2="112.31"/><line class="cls-5" x1="61.59" y1="110.37" x2="59.67" y2="112.28"/><line class="cls-5" x1="63.14" y1="110.34" x2="65.01" y2="112.31"/><line class="cls-5" x1="65.03" y1="110.37" x2="63.11" y2="112.28"/><path class="cls-5" d="M65.2,114H59.49a3,3,0,0,0,5.71,0Z"/><line class="cls-5" x1="61.19" y1="113.95" x2="61.18" y2="115.75"/><line class="cls-5" x1="62.34" y1="113.95" x2="62.33" y2="115.99"/><line class="cls-5" x1="63.68" y1="113.95" x2="63.68" y2="115.67"/><path class="cls-3" d="M212.46,127.15l-7.38-12.32a6.76,6.76,0,0,1-.63-2.94c.1-3.42,3.09-7.65,7.71-7.74s7.71,4,8,7.35a6.79,6.79,0,0,1-.45,3Z"/><ellipse class="cls-4" cx="212.32" cy="110.5" rx="4.91" ry="4.47"/><line class="cls-5" x1="209.67" y1="108.29" x2="211.54" y2="110.25"/><line class="cls-5" x1="211.56" y1="108.31" x2="209.64" y2="110.23"/><line class="cls-5" x1="213.11" y1="108.29" x2="214.98" y2="110.25"/><line class="cls-5" x1="215.01" y1="108.31" x2="213.09" y2="110.23"/><path class="cls-5" d="M215.17,111.9h-5.71a3,3,0,0,0,5.71,0Z"/><line class="cls-5" x1="211.17" y1="111.9" x2="211.15" y2="113.7"/><line class="cls-5" x1="212.32" y1="111.9" x2="212.3" y2="113.93"/><line class="cls-5" x1="213.66" y1="111.9" x2="213.66" y2="113.61"/><path class="cls-3" d="M93.12,107.5,85.74,95.18a6.57,6.57,0,0,1-.62-2.94c.09-3.42,3.08-7.65,7.7-7.74s7.72,4,8,7.36a6.84,6.84,0,0,1-.45,3Z"/><ellipse class="cls-4" cx="92.98" cy="90.86" rx="4.91" ry="4.47"/><line class="cls-5" x1="90.33" y1="88.64" x2="92.2" y2="90.61"/><line class="cls-5" x1="92.22" y1="88.67" x2="90.31" y2="90.58"/><line class="cls-5" x1="93.77" y1="88.64" x2="95.64" y2="90.61"/><line class="cls-5" x1="95.67" y1="88.67" x2="93.75" y2="90.58"/><path class="cls-5" d="M95.83,92.25H90.12a3,3,0,0,0,5.71,0Z"/><line class="cls-5" x1="91.83" y1="92.25" x2="91.82" y2="94.05"/><line class="cls-5" x1="92.98" y1="92.25" x2="92.96" y2="94.29"/><line class="cls-5" x1="94.32" y1="92.25" x2="94.32" y2="93.97"/><path class="cls-3" d="M18.22,198.89q-3.7-6.16-7.39-12.33a6.55,6.55,0,0,1-.62-2.93c.09-3.42,3.08-7.65,7.71-7.74s7.71,4,8,7.35a6.94,6.94,0,0,1-.46,3Z"/><ellipse class="cls-4" cx="18.07" cy="182.24" rx="4.91" ry="4.47"/><line class="cls-5" x1="15.42" y1="180.03" x2="17.29" y2="181.99"/><line class="cls-5" x1="17.32" y1="180.05" x2="15.4" y2="181.97"/><line class="cls-5" x1="18.87" y1="180.03" x2="20.73" y2="181.99"/><line class="cls-5" x1="20.76" y1="180.05" x2="18.84" y2="181.97"/><path class="cls-5" d="M20.93,183.64H15.22a3,3,0,0,0,5.71,0Z"/><line class="cls-5" x1="16.92" y1="183.64" x2="16.91" y2="185.44"/><line class="cls-5" x1="18.07" y1="183.64" x2="18.06" y2="185.67"/><line class="cls-5" x1="19.41" y1="183.64" x2="19.41" y2="185.35"/><path class="cls-3" d="M106.48,23.25,99.09,10.93A6.57,6.57,0,0,1,98.47,8c.09-3.42,3.08-7.65,7.71-7.74s7.71,4,8,7.36a7,7,0,0,1-.46,3Q110.09,16.94,106.48,23.25Z"/><ellipse class="cls-4" cx="106.33" cy="6.61" rx="4.91" ry="4.47"/><line class="cls-5" x1="103.68" y1="4.39" x2="105.55" y2="6.36"/><line class="cls-5" x1="105.58" y1="4.42" x2="103.66" y2="6.34"/><line class="cls-5" x1="107.13" y1="4.39" x2="108.99" y2="6.36"/><line class="cls-5" x1="109.02" y1="4.42" x2="107.1" y2="6.34"/><path class="cls-5" d="M109.19,8h-5.71a3,3,0,0,0,5.71,0Z"/><line class="cls-5" x1="105.18" y1="8" x2="105.17" y2="9.8"/><line class="cls-5" x1="106.33" y1="8" x2="106.31" y2="10.04"/><line class="cls-5" x1="107.67" y1="8" x2="107.67" y2="9.72"/><path class="cls-3" d="M166.92,191.11q-3.69-6.17-7.39-12.32a6.77,6.77,0,0,1-.62-2.94c.09-3.42,3.09-7.65,7.71-7.74s7.71,4,8,7.35a6.77,6.77,0,0,1-.46,3Z"/><ellipse class="cls-4" cx="166.78" cy="174.46" rx="4.91" ry="4.47"/><line class="cls-5" x1="164.13" y1="172.25" x2="166" y2="174.21"/><line class="cls-5" x1="166.02" y1="172.27" x2="164.1" y2="174.19"/><line class="cls-5" x1="167.57" y1="172.25" x2="169.44" y2="174.21"/><line class="cls-5" x1="169.46" y1="172.27" x2="167.55" y2="174.19"/><path class="cls-5" d="M169.63,175.86h-5.71a3,3,0,0,0,5.71,0Z"/><line class="cls-5" x1="165.63" y1="175.86" x2="165.61" y2="177.66"/><line class="cls-5" x1="166.78" y1="175.86" x2="166.76" y2="177.89"/><line class="cls-5" x1="168.12" y1="175.86" x2="168.12" y2="177.57"/><path class="cls-3" d="M123.15,207.29,115.77,195a6.69,6.69,0,0,1-.63-2.94c.1-3.42,3.09-7.65,7.71-7.74s7.72,4,8,7.36a6.84,6.84,0,0,1-.45,3Z"/><ellipse class="cls-4" cx="123.01" cy="190.65" rx="4.91" ry="4.47"/><line class="cls-5" x1="120.36" y1="188.43" x2="122.23" y2="190.4"/><line class="cls-5" x1="122.25" y1="188.46" x2="120.33" y2="190.37"/><line class="cls-5" x1="123.8" y1="188.43" x2="125.67" y2="190.4"/><line class="cls-5" x1="125.7" y1="188.46" x2="123.78" y2="190.37"/><path class="cls-5" d="M125.86,192h-5.71a3,3,0,0,0,5.71,0Z"/><line class="cls-5" x1="121.86" y1="192.04" x2="121.84" y2="193.84"/><line class="cls-5" x1="123.01" y1="192.04" x2="122.99" y2="194.08"/><line class="cls-5" x1="124.35" y1="192.04" x2="124.35" y2="193.76"/><path class="cls-3" d="M121.08,170.64l-7.39-12.33a6.69,6.69,0,0,1-.62-2.93c.09-3.42,3.09-7.65,7.71-7.74s7.71,4,8,7.35a6.77,6.77,0,0,1-.46,3Z"/><ellipse class="cls-4" cx="120.93" cy="153.99" rx="4.91" ry="4.47"/><line class="cls-5" x1="118.29" y1="151.78" x2="120.15" y2="153.74"/><line class="cls-5" x1="120.18" y1="151.8" x2="118.26" y2="153.72"/><line class="cls-5" x1="121.73" y1="151.78" x2="123.6" y2="153.74"/><line class="cls-5" x1="123.62" y1="151.8" x2="121.7" y2="153.72"/><path class="cls-5" d="M123.79,155.39h-5.71a3,3,0,0,0,5.71,0Z"/><line class="cls-5" x1="119.78" y1="155.39" x2="119.77" y2="157.19"/><line class="cls-5" x1="120.93" y1="155.39" x2="120.92" y2="157.42"/><line class="cls-5" x1="122.28" y1="155.39" x2="122.28" y2="157.1"/><path class="cls-3" d="M86.3,152l-7.38-12.32a6.76,6.76,0,0,1-.63-2.94c.1-3.42,3.09-7.65,7.71-7.74s7.72,4,8,7.35a6.79,6.79,0,0,1-.45,3Z"/><ellipse class="cls-4" cx="86.16" cy="135.38" rx="4.91" ry="4.47"/><line class="cls-5" x1="83.51" y1="133.17" x2="85.38" y2="135.14"/><line class="cls-5" x1="85.4" y1="133.19" x2="83.48" y2="135.11"/><line class="cls-5" x1="86.95" y1="133.17" x2="88.82" y2="135.14"/><line class="cls-5" x1="88.85" y1="133.19" x2="86.93" y2="135.11"/><path class="cls-5" d="M89,136.78H83.3a3,3,0,0,0,5.71,0Z"/><line class="cls-5" x1="85.01" y1="136.78" x2="84.99" y2="138.58"/><line class="cls-5" x1="86.16" y1="136.78" x2="86.14" y2="138.81"/><line class="cls-5" x1="87.5" y1="136.78" x2="87.5" y2="138.49"/><path class="cls-3" d="M124,103.75,116.6,91.43A6.84,6.84,0,0,1,116,88.5c.1-3.42,3.09-7.66,7.71-7.75s7.71,4,8,7.36a6.8,6.8,0,0,1-.46,3Q127.62,97.44,124,103.75Z"/><ellipse class="cls-4" cx="123.85" cy="87.11" rx="4.91" ry="4.47"/><line class="cls-5" x1="121.2" y1="84.89" x2="123.07" y2="86.86"/><line class="cls-5" x1="123.09" y1="84.92" x2="121.17" y2="86.84"/><line class="cls-5" x1="124.64" y1="84.89" x2="126.51" y2="86.86"/><line class="cls-5" x1="126.54" y1="84.92" x2="124.62" y2="86.84"/><path class="cls-5" d="M126.7,88.51H121a3,3,0,0,0,5.71,0Z"/><line class="cls-5" x1="122.7" y1="88.51" x2="122.68" y2="90.3"/><line class="cls-5" x1="123.85" y1="88.51" x2="123.83" y2="90.54"/><line class="cls-5" x1="125.19" y1="88.51" x2="125.19" y2="90.22"/><path class="cls-3" d="M204.6,55.24l-7.39-12.32a6.63,6.63,0,0,1-.62-2.94c.09-3.42,3.08-7.65,7.71-7.74s7.71,4,8,7.35a6.92,6.92,0,0,1-.46,3Z"/><ellipse class="cls-4" cx="204.45" cy="38.6" rx="4.91" ry="4.47"/><line class="cls-5" x1="201.8" y1="36.38" x2="203.67" y2="38.35"/><line class="cls-5" x1="203.69" y1="36.4" x2="201.78" y2="38.32"/><line class="cls-5" x1="205.25" y1="36.38" x2="207.11" y2="38.35"/><line class="cls-5" x1="207.14" y1="36.4" x2="205.22" y2="38.32"/><path class="cls-5" d="M207.31,40H201.6a3,3,0,0,0,5.71,0Z"/><line class="cls-5" x1="203.3" y1="39.99" x2="203.29" y2="41.79"/><line class="cls-5" x1="204.45" y1="39.99" x2="204.43" y2="42.02"/><line class="cls-5" x1="205.79" y1="39.99" x2="205.79" y2="41.71"/><path class="cls-3" d="M230.84,58.32,223.46,46a6.68,6.68,0,0,1-.63-2.93c.1-3.42,3.09-7.65,7.71-7.74s7.72,4,8,7.35a6.81,6.81,0,0,1-.45,3Z"/><ellipse class="cls-4" cx="230.7" cy="41.67" rx="4.91" ry="4.47"/><line class="cls-5" x1="228.05" y1="39.46" x2="229.92" y2="41.42"/><line class="cls-5" x1="229.94" y1="39.48" x2="228.02" y2="41.4"/><line class="cls-5" x1="231.49" y1="39.46" x2="233.36" y2="41.42"/><line class="cls-5" x1="233.39" y1="39.48" x2="231.47" y2="41.4"/><path class="cls-5" d="M233.55,43.07h-5.71a3,3,0,0,0,5.71,0Z"/><line class="cls-5" x1="229.55" y1="43.07" x2="229.53" y2="44.87"/><line class="cls-5" x1="230.7" y1="43.07" x2="230.68" y2="45.1"/><line class="cls-5" x1="232.04" y1="43.07" x2="232.04" y2="44.78"/><path class="cls-3" d="M231.32,142.42q-3.7-6.16-7.39-12.33a6.55,6.55,0,0,1-.62-2.93c.09-3.42,3.08-7.65,7.71-7.74s7.71,4,8,7.35a6.92,6.92,0,0,1-.46,3Z"/><ellipse class="cls-4" cx="231.17" cy="125.77" rx="4.91" ry="4.47"/><line class="cls-5" x1="228.52" y1="123.56" x2="230.39" y2="125.52"/><line class="cls-5" x1="230.42" y1="123.58" x2="228.5" y2="125.5"/><line class="cls-5" x1="231.97" y1="123.56" x2="233.83" y2="125.52"/><line class="cls-5" x1="233.86" y1="123.58" x2="231.94" y2="125.5"/><path class="cls-5" d="M234,127.17h-5.71a3,3,0,0,0,5.71,0Z"/><line class="cls-5" x1="230.02" y1="127.17" x2="230.01" y2="128.97"/><line class="cls-5" x1="231.17" y1="127.17" x2="231.16" y2="129.2"/><line class="cls-5" x1="232.51" y1="127.17" x2="232.51" y2="128.88"/><path class="cls-3" d="M235.75,200.92l-7.39-12.33a6.69,6.69,0,0,1-.62-2.93c.09-3.42,3.09-7.65,7.71-7.74s7.71,4,8,7.35a6.77,6.77,0,0,1-.46,3Z"/><ellipse class="cls-4" cx="235.6" cy="184.27" rx="4.91" ry="4.47"/><line class="cls-5" x1="232.96" y1="182.06" x2="234.82" y2="184.02"/><line class="cls-5" x1="234.85" y1="182.08" x2="232.93" y2="184"/><line class="cls-5" x1="236.4" y1="182.06" x2="238.27" y2="184.02"/><line class="cls-5" x1="238.29" y1="182.08" x2="236.37" y2="184"/><path class="cls-5" d="M238.46,185.67h-5.71a3,3,0,0,0,5.71,0Z"/><line class="cls-5" x1="234.45" y1="185.67" x2="234.44" y2="187.47"/><line class="cls-5" x1="235.6" y1="185.67" x2="235.59" y2="187.7"/><line class="cls-5" x1="236.95" y1="185.67" x2="236.95" y2="187.38"/><path class="cls-3" d="M232.66,228.83l-7.39-12.32a6.57,6.57,0,0,1-.62-2.94c.09-3.42,3.08-7.65,7.71-7.74s7.71,4,8,7.36a7,7,0,0,1-.46,3Z"/><ellipse class="cls-4" cx="232.51" cy="212.19" rx="4.91" ry="4.47"/><line class="cls-5" x1="229.86" y1="209.97" x2="231.73" y2="211.94"/><line class="cls-5" x1="231.76" y1="210" x2="229.84" y2="211.92"/><line class="cls-5" x1="233.31" y1="209.97" x2="235.18" y2="211.94"/><line class="cls-5" x1="235.2" y1="210" x2="233.28" y2="211.92"/><path class="cls-5" d="M235.37,213.58h-5.71a3,3,0,0,0,5.71,0Z"/><line class="cls-5" x1="231.36" y1="213.58" x2="231.35" y2="215.38"/><line class="cls-5" x1="232.51" y1="213.58" x2="232.5" y2="215.62"/><line class="cls-5" x1="233.85" y1="213.58" x2="233.85" y2="215.3"/><path class="cls-3" d="M58.64,224.64l-7.39-12.32a6.6,6.6,0,0,1-.62-2.94c.09-3.42,3.08-7.65,7.71-7.74s7.71,4,8,7.35a6.92,6.92,0,0,1-.46,3Z"/><ellipse class="cls-4" cx="58.49" cy="208" rx="4.91" ry="4.47"/><line class="cls-5" x1="55.84" y1="205.78" x2="57.71" y2="207.75"/><line class="cls-5" x1="57.74" y1="205.8" x2="55.82" y2="207.72"/><line class="cls-5" x1="59.29" y1="205.78" x2="61.16" y2="207.75"/><line class="cls-5" x1="61.18" y1="205.8" x2="59.26" y2="207.72"/><path class="cls-5" d="M61.35,209.39H55.64a3,3,0,0,0,5.71,0Z"/><line class="cls-5" x1="57.34" y1="209.39" x2="57.33" y2="211.19"/><line class="cls-5" x1="58.49" y1="209.39" x2="58.48" y2="211.42"/><line class="cls-5" x1="59.83" y1="209.39" x2="59.83" y2="211.11"/><path class="cls-3" d="M130,118.1l-7.39-12.32a6.74,6.74,0,0,1-.62-2.94c.09-3.42,3.09-7.65,7.71-7.74s7.71,4,8,7.36a6.82,6.82,0,0,1-.46,3Q133.66,111.79,130,118.1Z"/><ellipse class="cls-4" cx="129.88" cy="101.46" rx="4.91" ry="4.47"/><line class="cls-5" x1="127.23" y1="99.24" x2="129.1" y2="101.21"/><line class="cls-5" x1="129.13" y1="99.27" x2="127.21" y2="101.18"/><line class="cls-5" x1="130.68" y1="99.24" x2="132.55" y2="101.21"/><line class="cls-5" x1="132.57" y1="99.27" x2="130.65" y2="101.18"/><path class="cls-5" d="M132.74,102.85H127a3,3,0,0,0,5.71,0Z"/><line class="cls-5" x1="128.73" y1="102.85" x2="128.72" y2="104.65"/><line class="cls-5" x1="129.88" y1="102.85" x2="129.87" y2="104.89"/><line class="cls-5" x1="131.22" y1="102.85" x2="131.22" y2="104.57"/><path class="cls-3" d="M160,83.45q-3.71-6.17-7.39-12.33a6.55,6.55,0,0,1-.62-2.93c.09-3.42,3.08-7.65,7.71-7.74s7.71,4,8,7.35a6.94,6.94,0,0,1-.46,3Z"/><ellipse class="cls-4" cx="159.89" cy="66.8" rx="4.91" ry="4.47"/><line class="cls-5" x1="157.24" y1="64.59" x2="159.11" y2="66.55"/><line class="cls-5" x1="159.13" y1="64.61" x2="157.22" y2="66.53"/><line class="cls-5" x1="160.69" y1="64.59" x2="162.55" y2="66.55"/><line class="cls-5" x1="162.58" y1="64.61" x2="160.66" y2="66.53"/><path class="cls-5" d="M162.75,68.2H157a3,3,0,0,0,5.71,0Z"/><line class="cls-5" x1="158.74" y1="68.2" x2="158.73" y2="70"/><line class="cls-5" x1="159.89" y1="68.2" x2="159.87" y2="70.23"/><line class="cls-5" x1="161.23" y1="68.2" x2="161.23" y2="69.91"/><path class="cls-3" d="M264.6,193.74l-7.39-12.32a6.69,6.69,0,0,1-.62-2.93c.09-3.42,3.09-7.66,7.71-7.75s7.71,4,8,7.36a6.8,6.8,0,0,1-.46,3Z"/><ellipse class="cls-4" cx="264.45" cy="177.1" rx="4.91" ry="4.47"/><line class="cls-5" x1="261.8" y1="174.89" x2="263.67" y2="176.85"/><line class="cls-5" x1="263.7" y1="174.91" x2="261.78" y2="176.83"/><line class="cls-5" x1="265.25" y1="174.89" x2="267.12" y2="176.85"/><line class="cls-5" x1="267.14" y1="174.91" x2="265.22" y2="176.83"/><path class="cls-5" d="M267.31,178.5H261.6a3,3,0,0,0,5.71,0Z"/><line class="cls-5" x1="263.3" y1="178.5" x2="263.29" y2="180.29"/><line class="cls-5" x1="264.45" y1="178.5" x2="264.44" y2="180.53"/><line class="cls-5" x1="265.79" y1="178.5" x2="265.79" y2="180.21"/><path class="cls-3" d="M272.47,215l-7.39-12.32a6.63,6.63,0,0,1-.62-2.94c.09-3.42,3.08-7.65,7.71-7.74s7.71,4,8,7.35a6.92,6.92,0,0,1-.46,3Z"/><ellipse class="cls-4" cx="272.32" cy="198.38" rx="4.91" ry="4.47"/><line class="cls-5" x1="269.67" y1="196.17" x2="271.54" y2="198.14"/><line class="cls-5" x1="271.56" y1="196.19" x2="269.65" y2="198.11"/><line class="cls-5" x1="273.11" y1="196.17" x2="274.98" y2="198.14"/><line class="cls-5" x1="275.01" y1="196.19" x2="273.09" y2="198.11"/><path class="cls-5" d="M275.18,199.78h-5.71a3,3,0,0,0,5.71,0Z"/><line class="cls-5" x1="271.17" y1="199.78" x2="271.16" y2="201.58"/><line class="cls-5" x1="272.32" y1="199.78" x2="272.3" y2="201.81"/><line class="cls-5" x1="273.66" y1="199.78" x2="273.66" y2="201.49"/><path class="cls-3" d="M73.32,43.74,65.93,31.42a6.63,6.63,0,0,1-.62-2.94c.09-3.42,3.08-7.65,7.71-7.74s7.71,4,8,7.35a6.92,6.92,0,0,1-.46,3Z"/><ellipse class="cls-4" cx="73.17" cy="27.09" rx="4.91" ry="4.47"/><line class="cls-5" x1="70.52" y1="24.88" x2="72.39" y2="26.85"/><line class="cls-5" x1="72.42" y1="24.9" x2="70.5" y2="26.82"/><line class="cls-5" x1="73.97" y1="24.88" x2="75.83" y2="26.85"/><line class="cls-5" x1="75.86" y1="24.9" x2="73.94" y2="26.82"/><path class="cls-5" d="M76,28.49H70.32a3,3,0,0,0,5.71,0Z"/><line class="cls-5" x1="72.02" y1="28.49" x2="72.01" y2="30.29"/><line class="cls-5" x1="73.17" y1="28.49" x2="73.15" y2="30.52"/><line class="cls-5" x1="74.51" y1="28.49" x2="74.51" y2="30.2"/><path class="cls-3" d="M56.92,68.16,49.53,55.84a6.74,6.74,0,0,1-.62-2.94c.1-3.42,3.09-7.65,7.71-7.74s7.71,4,8,7.36a6.82,6.82,0,0,1-.46,3Z"/><ellipse class="cls-4" cx="56.78" cy="51.52" rx="4.91" ry="4.47"/><line class="cls-5" x1="54.13" y1="49.3" x2="56" y2="51.27"/><line class="cls-5" x1="56.02" y1="49.33" x2="54.1" y2="51.24"/><line class="cls-5" x1="57.57" y1="49.3" x2="59.44" y2="51.27"/><line class="cls-5" x1="59.46" y1="49.33" x2="57.55" y2="51.24"/><path class="cls-5" d="M59.63,52.91H53.92a3,3,0,0,0,5.71,0Z"/><line class="cls-5" x1="55.63" y1="52.91" x2="55.61" y2="54.71"/><line class="cls-5" x1="56.78" y1="52.91" x2="56.76" y2="54.95"/><line class="cls-5" x1="58.12" y1="52.91" x2="58.12" y2="54.63"/><path class="cls-3" d="M19.45,48.71,12.06,36.38a6.55,6.55,0,0,1-.62-2.93c.09-3.42,3.08-7.66,7.71-7.75s7.71,4,8,7.36a6.94,6.94,0,0,1-.46,3Z"/><ellipse class="cls-4" cx="19.3" cy="32.06" rx="4.91" ry="4.47"/><line class="cls-5" x1="16.65" y1="29.85" x2="18.52" y2="31.81"/><line class="cls-5" x1="18.55" y1="29.87" x2="16.63" y2="31.79"/><line class="cls-5" x1="20.1" y1="29.85" x2="21.97" y2="31.81"/><line class="cls-5" x1="21.99" y1="29.87" x2="20.07" y2="31.79"/><path class="cls-5" d="M22.16,33.46H16.45a3,3,0,0,0,5.71,0Z"/><line class="cls-5" x1="18.15" y1="33.46" x2="18.14" y2="35.26"/><line class="cls-5" x1="19.3" y1="33.46" x2="19.29" y2="35.49"/><line class="cls-5" x1="20.64" y1="33.46" x2="20.64" y2="35.17"/><path class="cls-6" d="M49.91,181.93v-5.71c.65-.9,6.8-9,17.62-9.1A22.87,22.87,0,0,1,84.64,175l.2,6.38-3.6,0c.35-4.52-3-7.69-5.69-7.52s-5.38,3.46-4.8,7.7l-5.37.11c.49-4.09-2.75-7.35-5.89-7.24s-6.06,3.43-5.43,7.41Z"/><rect class="cls-7" x="49.66" y="171.19" width="0.24" height="5.04"/><rect class="cls-7" x="84.84" y="170.5" height="5.73"/><path class="cls-7" d="M49.9,171.84v-.53a20.59,20.59,0,0,1,18.37-9.63c10.69.54,16.15,9.37,16.57,10.07"/><line class="cls-7" x1="68.27" y1="161.68" x2="68.27" y2="167.12"/><line class="cls-7" x1="62.71" y1="162.18" x2="62.71" y2="168.2"/><line class="cls-7" x1="56.68" y1="164.4" x2="56.68" y2="170.42"/><line class="cls-7" x1="73.51" y1="162.48" x2="73.51" y2="168.5"/><line class="cls-7" x1="79.48" y1="165.9" x2="79.48" y2="171.19"/><path class="cls-6" d="M148.53,196.27l4.79-3.12c1.11.06,11.25.79,17.24,9.8a22.82,22.82,0,0,1,2.73,18.63l-5.23,3.66-2-3c4-2.17,4.78-6.75,3.19-8.87s-5.83-2.61-9.07.19l-3-4.44c3.7-1.82,4.65-6.31,2.85-8.89s-6.18-3.2-9.18-.5Z"/><rect class="cls-7" x="155.23" y="189.16" width="0.24" height="5.04" transform="translate(231.07 -43.14) rotate(56.9)"/><rect class="cls-7" x="174.78" y="217.99" height="5.73" transform="translate(264.33 -46.17) rotate(56.9)"/><path class="cls-7" d="M157,190.75l.44-.28a20.55,20.55,0,0,1,18.1,10.13c5.39,9.24,1,18.64.62,19.37"/><line class="cls-7" x1="175.52" y1="200.6" x2="170.97" y2="203.57"/><line class="cls-7" x1="172.07" y1="196.21" x2="167.03" y2="199.49"/><line class="cls-7" x1="166.91" y1="192.37" x2="161.87" y2="195.66"/><line class="cls-7" x1="177.72" y1="205.42" x2="172.68" y2="208.71"/><line class="cls-7" x1="178.11" y1="212.29" x2="173.68" y2="215.18"/><path class="cls-6" d="M194.53,187.44l4.79-3.12c1.11.06,11.25.79,17.25,9.8,5.62,8.45,3.09,17.41,2.73,18.63l-5.24,3.65-2-3c4-2.17,4.79-6.75,3.2-8.88s-5.84-2.61-9.08.19l-3-4.44c3.7-1.82,4.65-6.31,2.85-8.88s-6.18-3.2-9.18-.51Z"/><rect class="cls-7" x="201.23" y="180.32" width="0.24" height="5.04" transform="translate(244.55 -85.68) rotate(56.9)"/><rect class="cls-7" x="220.78" y="209.16" height="5.73" transform="translate(277.81 -88.72) rotate(56.9)"/><path class="cls-7" d="M203,181.92l.44-.29a20.62,20.62,0,0,1,18.11,10.13c5.38,9.25,1,18.64.61,19.38"/><line class="cls-7" x1="221.53" y1="191.76" x2="216.97" y2="194.73"/><line class="cls-7" x1="218.07" y1="187.37" x2="213.03" y2="190.66"/><line class="cls-7" x1="212.92" y1="183.54" x2="207.87" y2="186.82"/><line class="cls-7" x1="223.72" y1="196.59" x2="218.68" y2="199.88"/><line class="cls-7" x1="224.11" y1="203.46" x2="219.68" y2="206.35"/><path class="cls-8" d="M106.48,59.2V56.31a11.17,11.17,0,0,1,17.62-.54l.08,3.24h-1.82c.19-2.29-1.53-3.91-2.87-3.83s-2.73,1.75-2.45,3.9l-2.72,0a3,3,0,1,0-5.75.06Z"/><rect class="cls-9" x="106.37" y="53.76" width="0.12" height="2.56" transform="translate(0.25 -0.48) rotate(0.26)"/><rect class="cls-9" x="124.21" y="53.49" height="2.91" transform="translate(0.25 -0.57) rotate(0.26)"/><path class="cls-9" d="M106.5,54.08v-.26A10.42,10.42,0,0,1,115.84,49a10.91,10.91,0,0,1,8.38,5.14"/><line class="cls-9" x1="115.84" y1="48.98" x2="115.83" y2="51.73"/><line class="cls-9" x1="113.02" y1="49.21" x2="113" y2="52.27"/><line class="cls-9" x1="109.95" y1="50.33" x2="109.94" y2="53.38"/><line class="cls-9" x1="118.49" y1="49.39" x2="118.48" y2="52.45"/><line class="cls-9" x1="121.51" y1="51.14" x2="121.5" y2="53.82"/><path class="cls-8" d="M87.83,119.39v-2.9a11.18,11.18,0,0,1,17.62-.53l.08,3.23-1.82,0c.19-2.3-1.53-3.91-2.87-3.83s-2.73,1.74-2.45,3.89l-2.72,0a3,3,0,1,0-5.75.07Z"/><rect class="cls-9" x="87.72" y="113.94" width="0.12" height="2.56" transform="translate(0.53 -0.4) rotate(0.26)"/><rect class="cls-9" x="105.56" y="113.67" height="2.91" transform="translate(0.53 -0.48) rotate(0.26)"/><path class="cls-9" d="M87.85,114.27V114a10.42,10.42,0,0,1,9.34-4.84,11,11,0,0,1,8.38,5.14"/><line class="cls-9" x1="97.19" y1="109.16" x2="97.18" y2="111.92"/><line class="cls-9" x1="94.37" y1="109.4" x2="94.35" y2="112.45"/><line class="cls-9" x1="91.3" y1="110.51" x2="91.29" y2="113.56"/><line class="cls-9" x1="99.84" y1="109.58" x2="99.83" y2="112.63"/><line class="cls-9" x1="102.86" y1="111.33" x2="102.85" y2="114.01"/><path class="cls-8" d="M61.5,93.08l0-2.9a11.69,11.69,0,0,1,9-4.57,11.57,11.57,0,0,1,8.65,4l.09,3.24H77.39c.19-2.29-1.52-3.91-2.87-3.83s-2.73,1.74-2.45,3.9l-2.72,0a3,3,0,1,0-5.74.06Z"/><rect class="cls-9" x="61.4" y="87.63" width="0.12" height="2.56" transform="translate(0.41 -0.28) rotate(0.26)"/><rect class="cls-9" x="79.24" y="87.37" height="2.91" transform="translate(0.41 -0.36) rotate(0.26)"/><path class="cls-9" d="M61.52,88V87.7a10.46,10.46,0,0,1,9.34-4.85A10.94,10.94,0,0,1,79.24,88"/><line class="cls-9" x1="70.86" y1="82.85" x2="70.85" y2="85.61"/><line class="cls-9" x1="68.04" y1="83.09" x2="68.03" y2="86.14"/><line class="cls-9" x1="64.98" y1="84.21" x2="64.96" y2="87.26"/><line class="cls-9" x1="73.52" y1="83.27" x2="73.5" y2="86.32"/><line class="cls-9" x1="76.54" y1="85.02" x2="76.52" y2="87.7"/><path class="cls-8" d="M186.35,137.22l2.11-2A11.18,11.18,0,0,1,201,147.64l-2.28,2.29-1.27-1.32c1.79-1.44,1.78-3.8.8-4.71s-3.15-.78-4.51.9l-1.91-1.94a3,3,0,1,0-4-4.12Z"/><rect class="cls-9" x="189.28" y="133.04" width="0.12" height="2.56" transform="translate(157.31 -95.61) rotate(46.72)"/><rect class="cls-9" x="201.66" y="145.69" height="2.91" transform="translate(170.52 -100.54) rotate(46.72)"/><path class="cls-9" d="M190.08,133.71l.19-.18a10.42,10.42,0,0,1,9.94,3.43,11,11,0,0,1,2,9.62"/><line class="cls-9" x1="200.21" y1="136.96" x2="198.21" y2="138.85"/><line class="cls-9" x1="198.09" y1="135.08" x2="195.87" y2="137.17"/><line class="cls-9" x1="195.18" y1="133.62" x2="192.96" y2="135.72"/><line class="cls-9" x1="201.74" y1="139.17" x2="199.52" y2="141.27"/><line class="cls-9" x1="202.55" y1="142.57" x2="200.6" y2="144.4"/></g></g></svg>