<svg xmlns="http://www.w3.org/2000/svg" viewBox="0 0 323.13 185.73"><defs><style>.cls-1{fill:#fff;}.cls-2{fill:#231f20;}.cls-3,.cls-4{isolation:isolate;}.cls-4{font-size:40px;font-family:DonGraffitiRegular, Don Graffiti;}.cls-5{font-size:15px;}</style></defs><g id="Layer_2" data-name="Layer 2"><g id="Layer_1-2" data-name="Layer 1"><rect class="cls-1" y="22.09" width="323.13" height="163.63"/><path class="cls-1" d="M30.86,88.81a.59.59,0,0,0,.14.73l11,12.25a.4.4,0,0,0,.18.14.88.88,0,0,0,.78-.29L72.87,74.82a2.35,2.35,0,0,0,.42-.76,1.37,1.37,0,0,0-.12-1.14Q67.89,67.06,62.62,61.2a.77.77,0,0,0-.79-.24,3,3,0,0,0-.53.43l-.34.32L31.2,88.42A1.05,1.05,0,0,0,30.86,88.81Z" transform="translate(0 22.09)"/><path class="cls-2" d="M42.34,103.45a1.9,1.9,0,0,1-.58-.09,1.85,1.85,0,0,1-.88-.61L30,90.61a2.11,2.11,0,0,1-.45-2.45h0a2.48,2.48,0,0,1,.74-.9L60,60.6s.16-.16.32-.31a3.32,3.32,0,0,1,.95-.7,2.18,2.18,0,0,1,2.42.51l.09.09L74.43,72.11a2.86,2.86,0,0,1,.29,2.38A3.72,3.72,0,0,1,74,75.77l-.16.16L44,102.76A2.55,2.55,0,0,1,42.34,103.45ZM32.66,89.13l9.84,10.94L71.77,73.79a.64.64,0,0,0,.06-.11L62,62.77h0Z" transform="translate(0 22.09)"/><polygon class="cls-1" points="38.43 110.35 37.95 109.81 58.51 91.2 58.99 91.74 38.43 110.35"/><polygon class="cls-2" points="38.32 112.47 35.84 109.7 58.62 89.08 61.11 91.85 38.32 112.47"/><path class="cls-1" d="M72.46,71.09,75,68.92l-1.71-2,3.69-3.44h0a1.83,1.83,0,0,0,.3-1.14c-.06-.61-.45-.91-1.45-2-1.39-1.51-1.49-1.86-2.06-2a2.18,2.18,0,0,0-1.7.38l-1.61,1.42c-.66.59-1.29,1.17-1.91,1.75l-1.42-1.59-2.28,2" transform="translate(0 22.09)"/><path class="cls-2" d="M73.44,72.22l-2-2.26,1.36-1.18-1.68-1.91,4.57-4.27s0-.05,0-.06l-.57-.61-.49-.52-1-1.14-.37-.43a1.12,1.12,0,0,0-.38.14l-1.5,1.33c-.65.58-1.28,1.15-1.89,1.72l-1.13,1L67,62.47,65.8,63.52l-2-2.23,3.4-3.06,1.4,1.57.8-.72L71,57.64l.16-.12a3.61,3.61,0,0,1,2.88-.59,3.41,3.41,0,0,1,1.86,1.38c.23.27.53.62.94,1.07l.47.5a3.86,3.86,0,0,1,1.37,2.36,3.25,3.25,0,0,1-.53,2.09l-.24.3-2.62,2.45,1.74,2Z" transform="translate(0 22.09)"/><ellipse class="cls-1" cx="74.68" cy="63.56" rx="0.95" ry="0.75" transform="translate(-23.35 88.08) rotate(-41.82)"/><path class="cls-2" d="M74.48,65.91a2.18,2.18,0,0,1-1.62-.71,2.21,2.21,0,0,1-.52-1.84,2.65,2.65,0,0,1,.84-1.48,2.36,2.36,0,0,1,3.33,0A2.17,2.17,0,0,1,77,63.76a2.6,2.6,0,0,1-.83,1.47,2.53,2.53,0,0,1-1.56.67Zm0-3h0a.5.5,0,0,0-.26.09.45.45,0,0,0-.12.25.83.83,0,0,0,.22.67.7.7,0,0,0,.9.19.42.42,0,0,0,.12-.24.85.85,0,0,0-.82-1Z" transform="translate(0 22.09)"/><path class="cls-1" d="M60.77,102.65a.59.59,0,0,0,.73-.17L73.38,91.05a.46.46,0,0,0,.13-.19.92.92,0,0,0-.31-.77l-27.81-29a2.1,2.1,0,0,0-.77-.39,1.4,1.4,0,0,0-1.14.15L32.12,71.83a.76.76,0,0,0-.21.8,2.68,2.68,0,0,0,.45.51l.33.33,27.69,28.85A1,1,0,0,0,60.77,102.65Z" transform="translate(0 22.09)"/><path class="cls-2" d="M61,104.2a2.16,2.16,0,0,1-.86-.17h0a2.43,2.43,0,0,1-.92-.71L31.61,74.51a4.45,4.45,0,0,1-.32-.32,3.36,3.36,0,0,1-.74-.91A2.21,2.21,0,0,1,31,70.84l.09-.09L42.63,59.66A2.84,2.84,0,0,1,45,59.29a3.7,3.7,0,0,1,1.3.65l.17.15,27.81,29A2.32,2.32,0,0,1,75,91.27a1.85,1.85,0,0,1-.58.9L62.6,103.5A2.05,2.05,0,0,1,61,104.2ZM33.71,72.37h0L61,100.84l10.6-10.2L44.4,62.27a.88.88,0,0,0-.12-.07Z" transform="translate(0 22.09)"/><polygon class="cls-1" points="59.97 117.19 59.45 117.69 40.16 97.76 40.68 97.26 59.97 117.19"/><polygon class="cls-2" points="59.41 119.81 38.04 97.72 40.72 95.15 62.09 117.23 59.41 119.81"/><path class="cls-1" d="M41.68,61.67l-2.26-2.42L37.53,61,34,57.45h0a1.82,1.82,0,0,0-1.15-.26c-.6.08-.89.48-1.94,1.51-1.48,1.45-1.82,1.55-1.94,2.13a2.17,2.17,0,0,0,.44,1.69c.48.51,1,1,1.47,1.56s1.21,1.25,1.81,1.85l-1.54,1.46,2.13,2.22" transform="translate(0 22.09)"/><path class="cls-2" d="M32.17,70.65,29,67.35l1.52-1.45-.75-.78c-.51-.53-1-1.06-1.49-1.58l-.13-.16a3.61,3.61,0,0,1-.68-2.86,3.4,3.4,0,0,1,1.32-1.91c.26-.24.59-.55,1-1l.48-.47a3.94,3.94,0,0,1,2.32-1.46,3.28,3.28,0,0,1,2.11.46l.3.23,2.54,2.54,1.92-1.81,3.29,3.52-2.2,2-1.23-1.32L37.5,63.11l-4.42-4.42H33l-.59.59-.5.51c-.48.46-.84.79-1.11,1l-.42.39a.94.94,0,0,0,.16.37c.45.49.91,1,1.38,1.46s1.19,1.24,1.78,1.83L34.81,66l-1.56,1.48,1.08,1.13Z" transform="translate(0 22.09)"/><ellipse class="cls-1" cx="34.07" cy="59.69" rx="0.75" ry="0.95" transform="matrix(0.72, -0.69, 0.69, 0.72, -31.81, 62.21)"/><path class="cls-2" d="M34.27,62.05a2.56,2.56,0,0,1-1.82-.79h0a2.6,2.6,0,0,1-.72-1.54,2.16,2.16,0,0,1,.65-1.8,2.14,2.14,0,0,1,1.54-.59,2.55,2.55,0,0,1,1.78.8,2.37,2.37,0,0,1,.08,3.33A2.15,2.15,0,0,1,34.27,62.05Zm-.73-1.84a.46.46,0,0,0,.32.12.87.87,0,0,0,.59-.24.82.82,0,0,0,.26-.66.4.4,0,0,0-.1-.25Zm.73-1.15a.82.82,0,0,0-.57.24.71.71,0,0,0-.17.91h0l1.07-1A.45.45,0,0,0,34.27,59.06Z" transform="translate(0 22.09)"/><path class="cls-1" d="M31.88,139a.59.59,0,0,0,.14.73l11,12.26a.4.4,0,0,0,.18.14.91.91,0,0,0,.78-.29L73.89,125a2.28,2.28,0,0,0,.42-.75,1.39,1.39,0,0,0-.12-1.15q-5.28-5.85-10.55-11.72a.79.79,0,0,0-.79-.23,2.23,2.23,0,0,0-.53.43c-.15.13-.26.24-.34.32L32.22,138.64A1.09,1.09,0,0,0,31.88,139Z" transform="translate(0 22.09)"/><path class="cls-2" d="M43.36,153.66a1.9,1.9,0,0,1-.58-.09,1.76,1.76,0,0,1-.88-.6L31,140.82a2.09,2.09,0,0,1-.45-2.44,2.64,2.64,0,0,1,.75-.91L61,110.81l.33-.31a3.4,3.4,0,0,1,.94-.7,2.2,2.2,0,0,1,2.42.52l.09.09,10.69,11.91a2.84,2.84,0,0,1,.29,2.39,3.72,3.72,0,0,1-.69,1.28l-.16.16L45,153A2.57,2.57,0,0,1,43.36,153.66Zm-9.68-14.31,9.84,10.94L72.79,124a.67.67,0,0,0,.06-.12L63,113Z" transform="translate(0 22.09)"/><polygon class="cls-1" points="39.45 160.56 38.97 160.03 59.53 141.42 60.02 141.96 39.45 160.56"/><polygon class="cls-2" points="39.34 162.68 36.85 159.92 59.64 139.3 62.13 142.06 39.34 162.68"/><path class="cls-1" d="M73.48,121.31,76,119.13l-1.71-1.94L78,113.75h0a1.84,1.84,0,0,0,.3-1.14c-.06-.61-.45-.91-1.45-2-1.39-1.52-1.49-1.86-2.06-2A2.23,2.23,0,0,0,73,109c-.54.46-1.07.93-1.61,1.42s-1.29,1.17-1.92,1.74l-1.41-1.58-2.28,2.05" transform="translate(0 22.09)"/><path class="cls-2" d="M74.46,122.44l-2-2.26L73.85,119l-1.68-1.9,4.57-4.27,0-.06s-.33-.34-.58-.61l-.49-.53c-.44-.48-.76-.85-1-1.13s-.29-.34-.38-.43a.81.81,0,0,0-.38.14c-.5.43-1,.87-1.5,1.33-.65.58-1.28,1.15-1.89,1.72l-1.13,1L68,112.69l-1.16,1-2-2.24,3.41-3.06L69.62,110l.8-.73,1.63-1.43.17-.13a3.64,3.64,0,0,1,2.88-.58A3.36,3.36,0,0,1,77,108.53l.94,1.07.47.49a3.93,3.93,0,0,1,1.37,2.37,3.27,3.27,0,0,1-.53,2.09l-.24.29-2.62,2.45,1.74,2Z" transform="translate(0 22.09)"/><ellipse class="cls-1" cx="75.7" cy="113.77" rx="0.95" ry="0.75" transform="translate(-56.58 101.55) rotate(-41.82)"/><path class="cls-2" d="M75.5,116.12a2.18,2.18,0,0,1-1.62-.7,2.2,2.2,0,0,1-.52-1.85,2.62,2.62,0,0,1,.84-1.47h0a2.35,2.35,0,0,1,3.33,0,2.13,2.13,0,0,1,.54,1.56,2.62,2.62,0,0,1-2.57,2.42Zm-.3-2.9a.5.5,0,0,0-.13.32.87.87,0,0,0,.23.6.7.7,0,0,0,.9.19Zm0,0,1,1.11a.45.45,0,0,0,.12-.25.82.82,0,0,0-.21-.67.7.7,0,0,0-.9-.19Z" transform="translate(0 22.09)"/><path class="cls-1" d="M61.79,152.86a.59.59,0,0,0,.73-.16L74.4,141.26a.38.38,0,0,0,.13-.18.92.92,0,0,0-.31-.77l-27.81-29a2.46,2.46,0,0,0-.77-.39,1.34,1.34,0,0,0-1.14.16L33.14,122c-.1.12-.38.46-.21.8a2.36,2.36,0,0,0,.45.52,4.48,4.48,0,0,0,.33.32L61.4,152.54A1,1,0,0,0,61.79,152.86Z" transform="translate(0 22.09)"/><path class="cls-2" d="M62.06,154.42a2.18,2.18,0,0,1-.86-.18h0a2.32,2.32,0,0,1-.93-.72l-27.64-28.8-.33-.32a3.33,3.33,0,0,1-.72-.91,2.19,2.19,0,0,1,.42-2.43l.1-.1,11.55-11.08A2.87,2.87,0,0,1,46,109.5a3.56,3.56,0,0,1,1.3.66l.17.15,27.81,29a2.32,2.32,0,0,1,.67,2.22,1.85,1.85,0,0,1-.58.9L63.62,153.72A2.09,2.09,0,0,1,62.06,154.42ZM34.73,122.59h0l27.32,28.46,10.6-10.21L45.42,112.48l-.12-.06Z" transform="translate(0 22.09)"/><polygon class="cls-1" points="60.99 167.41 60.47 167.91 41.18 147.98 41.7 147.48 60.99 167.41"/><polygon class="cls-2" points="60.43 170.02 39.06 147.94 41.74 145.36 63.11 167.45 60.43 170.02"/><path class="cls-1" d="M42.7,111.88l-2.26-2.42-1.89,1.78L35,107.67h0a1.76,1.76,0,0,0-1.15-.26c-.6.08-.89.48-1.94,1.51-1.48,1.44-1.82,1.55-1.94,2.13a2.14,2.14,0,0,0,.44,1.68l1.47,1.57c.61.63,1.21,1.25,1.81,1.85l-1.54,1.46,2.13,2.22" transform="translate(0 22.09)"/><path class="cls-2" d="M33.19,120.87,30,117.56l1.52-1.45q-.37-.37-.75-.78c-.51-.53-1-1-1.49-1.58l-.13-.16a3.61,3.61,0,0,1-.68-2.86,3.43,3.43,0,0,1,1.32-1.91c.26-.23.6-.54,1-1l.47-.48a3.92,3.92,0,0,1,2.32-1.45,3.22,3.22,0,0,1,2.11.46l.3.23,2.54,2.54,1.92-1.81,3.29,3.52-2.2,2-1.23-1.31-1.85,1.73-4.41-4.42H34l-.59.6-.5.5c-.48.46-.83.79-1.11,1l-.42.4a1.07,1.07,0,0,0,.16.37L33,113.26c.6.63,1.19,1.24,1.78,1.83l1.09,1.09-1.56,1.48,1.08,1.13Z" transform="translate(0 22.09)"/><ellipse class="cls-1" cx="35.09" cy="109.91" rx="0.75" ry="0.95" transform="translate(-66.24 76.84) rotate(-43.73)"/><path class="cls-2" d="M35.29,112.27a2.52,2.52,0,0,1-1.82-.8h0a2.37,2.37,0,0,1-.08-3.33,2.18,2.18,0,0,1,1.55-.59,2.55,2.55,0,0,1,1.78.8,2.6,2.6,0,0,1,.72,1.53,2.16,2.16,0,0,1-.65,1.8A2.12,2.12,0,0,1,35.29,112.27Zm-.73-1.84h0a.43.43,0,0,0,.32.11.94.94,0,0,0,.59-.24.69.69,0,0,0,.16-.9Zm.74-1.16a.84.84,0,0,0-.58.25.8.8,0,0,0-.27.65.42.42,0,0,0,.11.26l1.07-1A.49.49,0,0,0,35.3,109.27Z" transform="translate(0 22.09)"/><circle class="cls-2" cx="81.37" cy="87.87" r="2.09"/><circle class="cls-2" cx="83.63" cy="92.68" r="2.09"/><circle class="cls-2" cx="86.62" cy="88.05" r="2.09"/><circle class="cls-2" cx="93.24" cy="88.21" r="2.09"/><circle class="cls-2" cx="90.43" cy="92.56" r="2.09"/><circle class="cls-2" cx="87.24" cy="97.5" r="2.09"/><circle class="cls-2" cx="100" cy="88.39" r="2.09"/><circle class="cls-2" cx="96.74" cy="93.44" r="2.09"/><circle class="cls-2" cx="93.34" cy="98.7" r="2.09"/><circle class="cls-2" cx="89.94" cy="103.96" r="2.09"/><path class="cls-1" d="M32.29,34.21a.58.58,0,0,0,.14.73l11,12.26a.32.32,0,0,0,.18.13.88.88,0,0,0,.78-.28L74.3,20.22a2.09,2.09,0,0,0,.41-.76,1.33,1.33,0,0,0-.12-1.14L64.05,6.6c-.11-.1-.45-.39-.79-.24a2.75,2.75,0,0,0-.53.44,3.86,3.86,0,0,0-.34.32L32.62,33.83A1,1,0,0,0,32.29,34.21Z" transform="translate(0 22.09)"/><path class="cls-2" d="M43.76,48.85a1.84,1.84,0,0,1-.57-.09,1.79,1.79,0,0,1-.89-.61L31.37,36a2.11,2.11,0,0,1-.44-2.44,2.44,2.44,0,0,1,.75-.91L61.39,6l.32-.31a3.5,3.5,0,0,1,.94-.7,2.18,2.18,0,0,1,2.42.52l.09.09,10.7,11.91a2.88,2.88,0,0,1,.29,2.39,3.76,3.76,0,0,1-.69,1.27l-.16.17L45.42,48.16A2.51,2.51,0,0,1,43.76,48.85ZM34.08,34.53l9.85,10.94L73.19,19.2a.88.88,0,0,0,.07-.12L63.45,8.18h0Z" transform="translate(0 22.09)"/><polygon class="cls-1" points="39.86 55.75 39.38 55.22 59.94 36.61 60.42 37.15 39.86 55.75"/><polygon class="cls-2" points="39.75 57.87 37.26 55.11 60.05 34.49 62.53 37.25 39.75 57.87"/><path class="cls-1" d="M73.88,16.5l2.5-2.18-1.71-1.94,3.68-3.44h0a1.79,1.79,0,0,0,.3-1.15c-.06-.6-.45-.9-1.45-2-1.39-1.52-1.48-1.86-2.06-2a2.17,2.17,0,0,0-1.7.39c-.53.46-1.07.93-1.61,1.42s-1.29,1.16-1.91,1.74L68.51,5.76,66.22,7.81" transform="translate(0 22.09)"/><path class="cls-2" d="M74.87,17.63l-2-2.26,1.36-1.19-1.68-1.9L77.15,8a.18.18,0,0,0,0-.06l-.58-.61-.48-.53c-.45-.48-.77-.86-1-1.14l-.37-.43a.93.93,0,0,0-.38.15L72.83,6.71,70.94,8.44,69.82,9.49,68.39,7.88l-1.16,1-2-2.23,3.41-3.06L70,5.2l.8-.72L72.46,3l.16-.12a3.59,3.59,0,0,1,2.89-.58,3.39,3.39,0,0,1,1.86,1.38c.22.26.52.61.94,1.06l.46.5a4,4,0,0,1,1.38,2.36,3.28,3.28,0,0,1-.53,2.1l-.24.29-2.62,2.45,1.74,2Z" transform="translate(0 22.09)"/><ellipse class="cls-1" cx="76.11" cy="8.96" rx="0.95" ry="0.75" transform="translate(13.41 75.12) rotate(-41.82)"/><path class="cls-2" d="M75.91,11.31a2.14,2.14,0,0,1-2.14-2.55,2.63,2.63,0,0,1,.83-1.48,2.37,2.37,0,0,1,3.33,0,2.16,2.16,0,0,1,.55,1.57,2.57,2.57,0,0,1-.87,1.75,2.62,2.62,0,0,1-1.55.67Zm0-3h0a.41.41,0,0,0-.26.1.47.47,0,0,0-.13.32.83.83,0,0,0,.23.6.7.7,0,0,0,.9.19.45.45,0,0,0,.12-.25.88.88,0,0,0-.82-1Z" transform="translate(0 22.09)"/><path class="cls-1" d="M62.2,48.05a.58.58,0,0,0,.72-.17L74.8,36.45a.31.31,0,0,0,.13-.18.88.88,0,0,0-.31-.77l-27.81-29A2.27,2.27,0,0,0,46,6.14a1.34,1.34,0,0,0-1.14.16L33.54,17.23a.78.78,0,0,0-.21.8,3,3,0,0,0,.45.52l.33.32,27.7,28.86A1,1,0,0,0,62.2,48.05Z" transform="translate(0 22.09)"/><path class="cls-2" d="M62.47,49.61a2.18,2.18,0,0,1-.86-.18h0a2.54,2.54,0,0,1-.92-.71L33,19.91l-.32-.31a3.48,3.48,0,0,1-.73-.92,2.19,2.19,0,0,1,.44-2.44l.08-.09L44.06,5.06a2.88,2.88,0,0,1,2.37-.37,3.87,3.87,0,0,1,1.3.65l.16.15,27.81,29a2.33,2.33,0,0,1,.68,2.21,1.84,1.84,0,0,1-.58.91L64,48.9A2.06,2.06,0,0,1,62.47,49.61ZM35.14,17.78h0L62.46,46.25,73.07,36,45.83,7.67l-.12-.06Z" transform="translate(0 22.09)"/><polygon class="cls-1" points="61.39 62.6 60.87 63.1 41.59 43.17 42.11 42.67 61.39 62.6"/><polygon class="cls-2" points="60.84 65.21 39.47 43.13 42.15 40.55 63.52 62.63 60.84 65.21"/><path class="cls-1" d="M43.11,7.07,40.85,4.65,39,6.42,35.4,2.86h0a1.82,1.82,0,0,0-1.15-.27c-.61.09-.89.48-2,1.52-1.47,1.44-1.81,1.55-1.94,2.13a2.19,2.19,0,0,0,.45,1.68l1.47,1.57c.61.63,1.21,1.25,1.81,1.85L32.55,12.8,34.68,15" transform="translate(0 22.09)"/><path class="cls-2" d="M33.59,16.06l-3.17-3.31L32,11.3l-.75-.78c-.51-.53-1-1.06-1.49-1.58l-.13-.16a3.57,3.57,0,0,1-.68-2.86A3.38,3.38,0,0,1,30.22,4c.25-.23.59-.54,1-1l.48-.48a3.86,3.86,0,0,1,2.32-1.45,3.27,3.27,0,0,1,2.11.45l.3.24L39,4.33l1.93-1.8L44.2,6.05,42,8.09,40.78,6.77,38.93,8.51,34.51,4.09s0,0-.07,0l-.58.6-.51.5c-.47.46-.83.79-1.1,1l-.42.39A.88.88,0,0,0,32,7c.44.48.9,1,1.37,1.46l1.79,1.83,1.08,1.09-1.56,1.48L35.76,14Z" transform="translate(0 22.09)"/><ellipse class="cls-1" cx="35.5" cy="5.1" rx="0.75" ry="0.95" transform="translate(6.32 48.05) rotate(-43.73)"/><path class="cls-2" d="M35.7,7.46h-.05a2.55,2.55,0,0,1-1.78-.8h0a2.36,2.36,0,0,1-.07-3.33,2.16,2.16,0,0,1,1.54-.6,2.6,2.6,0,0,1,1.78.8,2.38,2.38,0,0,1,.08,3.34A2.16,2.16,0,0,1,35.7,7.46ZM35,5.61a.43.43,0,0,0,.33.12.87.87,0,0,0,.59-.24A.71.71,0,0,0,36,4.58Zm.74-1.15a.83.83,0,0,0-.58.25.7.7,0,0,0-.16.9h0l1.08-1a.52.52,0,0,0-.33-.12Z" transform="translate(0 22.09)"/><g id="Start_with_art" data-name="Start with art" class="cls-3"><text class="cls-4" transform="translate(109.29 113.59)">Start with art<tspan class="cls-5"><tspan x="0" y="18">AMsterdam</tspan></tspan></text><text y="22.09"/></g></g></g></svg>