<svg xmlns="http://www.w3.org/2000/svg" viewBox="0 0 295.48 85.1"><defs><style>.cls-1{fill:#fff;}.cls-1,.cls-2,.cls-4,.cls-5{stroke:#231f20;stroke-miterlimit:10;}.cls-1,.cls-4,.cls-5{stroke-width:2px;}.cls-2,.cls-4{fill:none;}.cls-2{stroke-width:3px;}.cls-3{fill:#231f20;}.cls-5{fill:#f15757;}</style></defs><g id="Layer_2" data-name="Layer 2"><g id="Layer_1-2" data-name="Layer 1"><rect class="cls-1" x="1" y="3.26" width="80.84" height="80.84" rx="11.68"/><rect class="cls-1" x="108.35" y="2.18" width="80.84" height="80.84" rx="11.68"/><rect class="cls-1" x="213.64" y="1" width="80.84" height="80.84" rx="11.68"/><line class="cls-2" x1="121.97" y1="32.89" x2="121.98" y2="63.69"/><path class="cls-2" d="M122,69.6c.51-.61,10-11.66,28.18-11.82s27.73,10.81,28.21,11.39"/><line class="cls-2" x1="138.05" y1="32.55" x2="138.07" y2="55.42"/><line class="cls-2" x1="158.58" y1="32.42" x2="158.59" y2="55.19"/><line class="cls-2" x1="176.85" y1="32.42" x2="176.87" y2="61.66"/><path class="cls-2" d="M120.44,28.58h5l-.09-8.76,8-.1.07,9,5.77,0a5.37,5.37,0,0,0,2.83-1.48c2.42-2.55.2-6.3,2.24-8.5,1.7-1.84,5.81-2,7.64-.21,2.3,2.21-.09,6.41,2.4,8.84a5.79,5.79,0,0,0,4.17,1.33V21.58h4.52c0-2.06-.05-4.11-.08-6.16l8.83-.07c0,2,0,4.08,0,6.12l5,0,0,8.33"/><circle class="cls-2" cx="148.16" cy="25.96" r="0.27"/><rect class="cls-3" x="127.75" y="32.18" width="3.53" height="3.53"/><rect class="cls-3" x="127.75" y="37.76" width="3.53" height="3.53"/><rect class="cls-3" x="127.75" y="43.33" width="3.53" height="3.53"/><rect class="cls-3" x="143.16" y="32.18" width="3.53" height="3.53"/><rect class="cls-3" x="150.87" y="32.18" width="3.53" height="3.53"/><rect class="cls-3" x="143.16" y="37.76" width="3.53" height="5.58"/><rect class="cls-3" x="150.87" y="37.76" width="3.53" height="5.58"/><rect class="cls-3" x="143.16" y="45.09" width="3.53" height="3.53"/><rect class="cls-3" x="150.87" y="45.09" width="3.53" height="3.53"/><rect class="cls-3" x="165.97" y="24.18" width="3.53" height="5.58"/><rect class="cls-3" x="165.96" y="31.93" width="3.53" height="4.02"/><rect class="cls-3" x="165.97" y="37.18" width="3.53" height="5.58"/><rect class="cls-3" x="165.97" y="44.33" width="3.53" height="4.02"/><path class="cls-2" d="M218.73,62V50.36c1.34-1.83,13.88-18.36,36-18.57,20.72-.2,33.23,14.12,34.9,16.1q.19,6.51.41,13l-7.35.08c.73-9.23-6.21-15.71-11.61-15.36-5.18.34-11,7.07-9.79,15.73l-10.95.21c1-8.35-5.61-15-12-14.77s-12.37,7-11.1,15.13Z"/><rect class="cls-4" x="218.23" y="40.1" width="0.48" height="10.29"/><rect class="cls-4" x="290.01" y="38.7" height="11.69"/><path class="cls-4" d="M218.71,41.42V40.35a42,42,0,0,1,37.5-19.66c21.8,1.11,33,19.11,33.8,20.55"/><line class="cls-4" x1="256.21" y1="20.69" x2="256.21" y2="31.79"/><line class="cls-4" x1="244.85" y1="21.71" x2="244.85" y2="33.99"/><line class="cls-4" x1="232.54" y1="26.24" x2="232.54" y2="38.52"/><line class="cls-4" x1="266.9" y1="22.33" x2="266.9" y2="34.6"/><line class="cls-4" x1="279.08" y1="29.31" x2="279.08" y2="40.1"/><path class="cls-5" d="M41,72Q31.71,56.55,22.47,41.13a16.68,16.68,0,0,1-1.56-7.35c.23-8.56,7.73-19.16,19.3-19.38s19.3,9.92,20,18.41a17.23,17.23,0,0,1-1.14,7.59Z"/><ellipse class="cls-1" cx="40.6" cy="30.31" rx="12.28" ry="11.19"/><line class="cls-4" x1="33.97" y1="24.77" x2="38.64" y2="29.69"/><line class="cls-4" x1="38.7" y1="24.83" x2="33.9" y2="29.63"/><line class="cls-4" x1="42.59" y1="24.77" x2="47.26" y2="29.69"/><line class="cls-4" x1="47.32" y1="24.83" x2="42.52" y2="29.63"/><path class="cls-4" d="M47.74,33.8H33.45a7.55,7.55,0,0,0,14.29,0Z"/><line class="cls-4" x1="37.72" y1="33.8" x2="37.68" y2="38.31"/><line class="cls-4" x1="40.6" y1="33.8" x2="40.55" y2="38.9"/><line class="cls-4" x1="43.95" y1="33.8" x2="43.95" y2="38.1"/></g></g></svg>