<svg xmlns="http://www.w3.org/2000/svg" xmlns:xlink="http://www.w3.org/1999/xlink" width="578.061" height="232.746" viewBox="0 0 578.061 232.746">
  <defs>
    <radialGradient id="radial-gradient" cx="0.5" cy="0.5" r="0.779" gradientTransform="matrix(0.646, -0.763, 0.723, 0.612, -0.185, 0.575)" gradientUnits="objectBoundingBox">
      <stop offset="0" stop-color="#ebaa0d"/>
      <stop offset="1" stop-color="#b13f22"/>
    </radialGradient>
    <radialGradient id="radial-gradient-2" cx="0.5" cy="0.5" r="0.728" gradientTransform="matrix(0.626, -0.78, 0.726, 0.583, -0.176, 0.599)" gradientUnits="objectBoundingBox">
      <stop offset="0" stop-color="#ebaa0d"/>
      <stop offset="0.677" stop-color="#cb5a2d"/>
      <stop offset="1" stop-color="#ff3c0a"/>
    </radialGradient>
  </defs>
  <g id="Group_167" data-name="Group 167" transform="translate(-2232.691 -425.088)">
    <path id="Path_131" data-name="Path 131" d="M-10918.6-12969.877l-20-36.848,4.634-4.6,6.438-1.065a4.965,4.965,0,0,0-1.325,1.916,6.142,6.142,0,0,0-.228,2.742,6.847,6.847,0,0,0,2.105,4c.758.813,2.418,1.518,3.684,2.5,2.131,1.658,5.582,2.924,8,4.314,2.475,1.422,4.155,2.892,5.741,6.873a15.048,15.048,0,0,1,1.072,7.164,16.676,16.676,0,0,1-3.129,7.249,28.478,28.478,0,0,1-7,5.754" transform="translate(13369.963 13565.762)" fill="#784b3b" stroke="#707070" stroke-width="1"/>
    <g id="Group_78" data-name="Group 78" transform="matrix(0.999, 0.035, -0.035, 0.999, 2727.43, 435.909)">
      <g id="Rectangle_17" data-name="Rectangle 17" transform="matrix(0.978, -0.208, 0.208, 0.978, 9.692, 14.084)" fill="#e1d5c2" stroke="#707070" stroke-width="1">
        <rect width="2.445" height="6.847" stroke="none"/>
        <rect x="0.5" y="0.5" width="1.445" height="5.847" fill="none"/>
      </g>
      <path id="Path_46" data-name="Path 46" d="M8.177.023c-1.986.238-1.1.867-3.1,2.735-.512.48-2.036.429-2.717.8C.651,4.5-.265,5.586.067,7.444c.448,2.5,4.552,3.072,6.9,5.357s2.355,3.6,2.355,3.6l3.752-.778a6.18,6.18,0,0,1,.622-4.312c1.215-2.286,2.966-2.382,4.2-4.766.488-.943.084-2.264,0-2.988-.277-2.4-5.238-2.071-5.238-2.071S10.164-.215,8.177.023Z" transform="translate(0 0)" fill="#e1d5c2" stroke="#707070" stroke-width="1"/>
    </g>
    <g id="Group_79" data-name="Group 79" transform="matrix(0.999, 0.035, -0.035, 0.999, 2749.107, 431.785)">
      <g id="Rectangle_17-2" data-name="Rectangle 17" transform="matrix(0.978, -0.208, 0.208, 0.978, 9.692, 14.084)" fill="#e1d5c2" stroke="#707070" stroke-width="1">
        <rect width="2.445" height="6.847" stroke="none"/>
        <rect x="0.5" y="0.5" width="1.445" height="5.847" fill="none"/>
      </g>
      <path id="Path_46-2" data-name="Path 46" d="M8.177.023c-1.986.238-1.1.867-3.1,2.735-.512.48-2.036.429-2.717.8C.651,4.5-.265,5.586.067,7.444c.448,2.5,4.552,3.072,6.9,5.357s2.355,3.6,2.355,3.6l3.752-.778a6.18,6.18,0,0,1,.622-4.312c1.215-2.286,2.966-2.382,4.2-4.766.488-.943.084-2.264,0-2.988-.277-2.4-5.238-2.071-5.238-2.071S10.164-.215,8.177.023Z" transform="translate(0 0)" fill="#e1d5c2" stroke="#707070" stroke-width="1"/>
    </g>
    <g id="Group_80" data-name="Group 80" transform="translate(2770.313 425.919) rotate(-1)">
      <g id="Rectangle_17-3" data-name="Rectangle 17" transform="matrix(0.978, -0.208, 0.208, 0.978, 9.692, 14.084)" fill="#e1d5c2" stroke="#707070" stroke-width="1">
        <rect width="2.445" height="6.847" stroke="none"/>
        <rect x="0.5" y="0.5" width="1.445" height="5.847" fill="none"/>
      </g>
      <path id="Path_46-3" data-name="Path 46" d="M8.177.023c-1.986.238-1.1.867-3.1,2.734-.512.48-2.036.429-2.718.8C.651,4.5-.265,5.586.068,7.444c.448,2.5,4.552,3.072,6.9,5.358s2.355,3.6,2.355,3.6l3.752-.778a6.18,6.18,0,0,1,.622-4.312c1.215-2.286,2.966-2.382,4.2-4.766.488-.943.084-2.264,0-2.988-.278-2.4-5.238-2.071-5.238-2.071S10.164-.215,8.177.023Z" transform="translate(0 0)" fill="#e1d5c2" stroke="#707070" stroke-width="1"/>
    </g>
    <path id="Path_132" data-name="Path 132" d="M-11423.908-13384.673l24.447,2.782s8.814,3.378,17.936,7.808,9.029,5.9,15.3,8.806,9.77,2.825,9.77,2.825l17.489-11.631,26.961-9.4s20.075-.076,29.52,9.747,13.662,28.352,13.662,28.352l-115.813,8.418Z" transform="translate(13736.598 13847.01)" fill="#7e5144" stroke="#707070" stroke-width="1"/>
    <path id="Path_133" data-name="Path 133" d="M-11542.471-13382.055c-15.693-3.81-33.189,6.185-45.541,13.746-5.1,3.119-8.046,5.595-12.317,6s-7.051.618-11.4-1.893c-8.295-4.792-20.349-13.143-33.843-17.134-20.413-6.037-36.755-2.046-36.755-2.046s-15.924,3.55-28.886,13.68c-9.04,7.065-16.328,17.021-21.935,28.519-13.576,27.839-5,67.834-5,67.834s13.638,46.307,35.982,66.3,50.158,14.66,50.158,14.66,19.576-.363,39.285-14.66c3.794-2.753,17.024-14.65,22.356-24.9,1.771-2.514,3.971-5.325,4.648-6.429a27.656,27.656,0,0,1,7.848-8.052c4.137-2.3,9.532-1.908,9.532-1.908s13.328,3.237,22.3,3.639a37.693,37.693,0,0,0,13.71-2.189,18.076,18.076,0,0,0,6.547-4.009,15.288,15.288,0,0,0,4.11-4.729c1.464-3.179,3.041-7.131,1.8-11.694-2.547-9.35-17.145-10.124-19.943-16.97s5-10.549,5-10.549l21.825-46.689S-11520.273-13376.664-11542.471-13382.055Z" transform="translate(13976.01 13847.009)" stroke="#e2caa8" stroke-width="5" fill="url(#radial-gradient)"/>
    <g id="Group_81" data-name="Group 81" transform="matrix(0.921, -0.391, 0.391, 0.921, 2737.275, 497.876)">
      <g id="Rectangle_17-4" data-name="Rectangle 17" transform="matrix(0.978, 0.208, -0.208, 0.978, 11.116, 0)" fill="#e1d5c2" stroke="#707070" stroke-width="1">
        <rect width="2.445" height="6.847" stroke="none"/>
        <rect x="0.5" y="0.5" width="1.445" height="5.847" fill="none"/>
      </g>
      <path id="Path_46-4" data-name="Path 46" d="M8.177,16.383c-1.986-.238-1.1-.867-3.1-2.734-.512-.48-2.036-.429-2.718-.8C.651,11.9-.265,10.82.068,8.961c.448-2.5,4.552-3.072,6.9-5.358S9.324,0,9.324,0l3.752.778A6.181,6.181,0,0,0,13.7,5.09c1.215,2.286,2.966,2.382,4.2,4.766.488.943.084,2.264,0,2.988-.278,2.4-5.238,2.071-5.238,2.071S10.164,16.62,8.177,16.383Z" transform="translate(0 4.376)" fill="#e1d5c2" stroke="#707070" stroke-width="1"/>
    </g>
    <g id="Group_82" data-name="Group 82" transform="matrix(0.921, -0.391, 0.391, 0.921, 2758.988, 493.958)">
      <g id="Rectangle_17-5" data-name="Rectangle 17" transform="matrix(0.978, 0.208, -0.208, 0.978, 11.116, 0)" fill="#e1d5c2" stroke="#707070" stroke-width="1">
        <rect width="2.445" height="6.847" stroke="none"/>
        <rect x="0.5" y="0.5" width="1.445" height="5.847" fill="none"/>
      </g>
      <path id="Path_46-5" data-name="Path 46" d="M8.177,16.383c-1.986-.238-1.1-.867-3.1-2.734-.512-.48-2.036-.429-2.718-.8C.651,11.9-.265,10.82.068,8.961c.448-2.5,4.552-3.072,6.9-5.358S9.324,0,9.324,0l3.752.778A6.181,6.181,0,0,0,13.7,5.09c1.215,2.286,2.966,2.382,4.2,4.766.488.943.084,2.264,0,2.988-.278,2.4-5.238,2.071-5.238,2.071S10.164,16.62,8.177,16.383Z" transform="translate(0 4.376)" fill="#e1d5c2" stroke="#707070" stroke-width="1"/>
    </g>
    <g id="Group_83" data-name="Group 83" transform="translate(2781.9 491.437) rotate(-20)">
      <g id="Rectangle_17-6" data-name="Rectangle 17" transform="matrix(0.978, 0.208, -0.208, 0.978, 11.116, 0)" fill="#e1d5c2" stroke="#707070" stroke-width="1">
        <rect width="2.445" height="6.847" stroke="none"/>
        <rect x="0.5" y="0.5" width="1.445" height="5.847" fill="none"/>
      </g>
      <path id="Path_46-6" data-name="Path 46" d="M8.177,16.382c-1.986-.238-1.1-.867-3.1-2.735-.512-.48-2.036-.429-2.718-.8C.651,11.9-.265,10.82.068,8.961c.448-2.5,4.552-3.072,6.9-5.358S9.324,0,9.324,0l3.752.778A6.18,6.18,0,0,0,13.7,5.09c1.215,2.287,2.966,2.382,4.2,4.766.488.943.084,2.264,0,2.988-.278,2.4-5.238,2.071-5.238,2.071S10.164,16.62,8.177,16.382Z" transform="translate(0 4.376)" fill="#e1d5c2" stroke="#707070" stroke-width="1"/>
    </g>
    <g id="Group_84" data-name="Group 84" transform="matrix(0.999, 0.035, -0.035, 0.999, 2394.783, 429.809)">
      <path id="Path_44" data-name="Path 44" d="M0,56.944l10.663,47.1,309.3-75.617L313.983,0Z" transform="translate(0 26.419)" fill="#131213" stroke="#e2caa8" stroke-width="5"/>
      <path id="Path_45" data-name="Path 45" d="M18.729,16.408a26.129,26.129,0,0,1-7.5,6.725A45.947,45.947,0,0,1,0,27.279l5.8,26.1H18.729a33.456,33.456,0,0,1,5.71,1.711,20.936,20.936,0,0,1,4.449,2.639,213.885,213.885,0,0,1,31.755-8.872,236.027,236.027,0,0,1,33.289-3.7A11.588,11.588,0,0,1,95.254,41.4,9.2,9.2,0,0,1,97.9,38.787s-1.38-1.057-.833-6.035c.218-1.981,2.329-3.509,3.02-5.473.982-2.789.544-5.935,0-8.4-.711-3.222-3.706-4.269-6.154-7.907A38.926,38.926,0,0,1,90.3,4.324a6.536,6.536,0,0,1-3.509-1,12.558,12.558,0,0,1-3-3.324A298.516,298.516,0,0,1,50.509,10.969,226.659,226.659,0,0,1,18.729,16.408Z" transform="translate(312.96 0)" fill="#131213" stroke="#e2caa8" stroke-width="5"/>
    </g>
    <path id="Path_134" data-name="Path 134" d="M-11663.479-14250.646c-2.623.335-5.01,3.627-5.226,6.992s6.01,7.083,6.01,7.083,13.476,2.425,21.445,4.348,10.434,3.347,10.434,3.347a86.148,86.148,0,0,1,17.688-3.9,53.9,53.9,0,0,1,15.663,1.147s-1.272,3.033-.621,5.27c.524,1.8,2.9,2.839,3.817,2.96,1.98.264,4.727-2.327,4.524-5.478s-5.332-7.118-5.332-7.118a29.213,29.213,0,0,0-7.677-1.658c-2.721-.243-6.421.549-9.288,0a61.459,61.459,0,0,1-13.217-4.112s-9.869,3.178-18.364,3.322a44.265,44.265,0,0,1-15.615-2.743s2.274-3.866,1.215-6.232S-11660.854-14250.98-11663.479-14250.646Z" transform="translate(13956.354 14740.484)" fill="#190701" stroke="#707070" stroke-width="1"/>
    <path id="Path_135" data-name="Path 135" d="M-10918.6-12969.877l-20-36.848,4.634-4.6,6.438-1.065a4.965,4.965,0,0,0-1.325,1.916,6.142,6.142,0,0,0-.228,2.742,6.847,6.847,0,0,0,2.105,4c.758.813,2.418,1.518,3.684,2.5,2.131,1.658,5.582,2.924,8,4.314,2.475,1.422,4.155,2.892,5.741,6.873a15.048,15.048,0,0,1,1.072,7.164,16.676,16.676,0,0,1-3.129,7.249,28.478,28.478,0,0,1-7,5.754" transform="translate(13369.963 13565.762)" fill="#784b3b" stroke="#707070" stroke-width="1"/>
    <path id="Path_136" data-name="Path 136" d="M-11423.908-13384.673l24.447,2.782s8.814,3.378,17.936,7.808,9.029,5.9,15.3,8.806,9.77,2.825,9.77,2.825l17.489-11.631,26.961-9.4s20.075-.076,29.52,9.747,13.662,28.352,13.662,28.352l-115.813,8.418Z" transform="translate(13736.598 13847.01)" fill="#7e5144" stroke="#707070" stroke-width="1"/>
    <path id="Path_137" data-name="Path 137" d="M-11542.471-13382.055c-15.693-3.81-33.189,6.185-45.541,13.746-5.1,3.119-8.046,5.595-12.317,6s-7.051.618-11.4-1.893c-8.295-4.792-20.349-13.143-33.843-17.134-20.413-6.037-36.755-2.046-36.755-2.046s-15.924,3.55-28.886,13.68c-9.04,7.065-16.328,17.021-21.935,28.519-13.576,27.839-5,67.834-5,67.834s13.638,46.307,35.982,66.3,50.158,14.66,50.158,14.66,19.576-.363,39.285-14.66c3.794-2.753,17.024-14.65,22.356-24.9,1.771-2.514,3.971-5.325,4.648-6.429a27.656,27.656,0,0,1,7.848-8.052c4.137-2.3,9.532-1.908,9.532-1.908s13.328,3.237,22.3,3.639a37.693,37.693,0,0,0,13.71-2.189,18.076,18.076,0,0,0,6.547-4.009,15.288,15.288,0,0,0,4.11-4.729c1.464-3.179,3.041-7.131,1.8-11.694-2.547-9.35-17.145-10.124-19.943-16.97s5-10.549,5-10.549l21.825-46.689S-11520.273-13376.664-11542.471-13382.055Z" transform="translate(13976.01 13847.009)" stroke="#e2caa8" stroke-width="5" fill="url(#radial-gradient-2)"/>
    <g id="Group_85" data-name="Group 85" transform="matrix(0.921, -0.391, 0.391, 0.921, 2737.275, 497.876)">
      <g id="Rectangle_17-7" data-name="Rectangle 17" transform="matrix(0.978, 0.208, -0.208, 0.978, 11.116, 0)" fill="#e1d5c2" stroke="#707070" stroke-width="1">
        <rect width="2.445" height="6.847" stroke="none"/>
        <rect x="0.5" y="0.5" width="1.445" height="5.847" fill="none"/>
      </g>
      <path id="Path_46-7" data-name="Path 46" d="M8.177,16.383c-1.986-.238-1.1-.867-3.1-2.734-.512-.48-2.036-.429-2.718-.8C.651,11.9-.265,10.82.068,8.961c.448-2.5,4.552-3.072,6.9-5.358S9.324,0,9.324,0l3.752.778A6.181,6.181,0,0,0,13.7,5.09c1.215,2.286,2.966,2.382,4.2,4.766.488.943.084,2.264,0,2.988-.278,2.4-5.238,2.071-5.238,2.071S10.164,16.62,8.177,16.383Z" transform="translate(0 4.376)" fill="#e1d5c2" stroke="#707070" stroke-width="1"/>
    </g>
    <g id="Group_86" data-name="Group 86" transform="matrix(0.921, -0.391, 0.391, 0.921, 2758.988, 493.958)">
      <g id="Rectangle_17-8" data-name="Rectangle 17" transform="matrix(0.978, 0.208, -0.208, 0.978, 11.116, 0)" fill="#e1d5c2" stroke="#707070" stroke-width="1">
        <rect width="2.445" height="6.847" stroke="none"/>
        <rect x="0.5" y="0.5" width="1.445" height="5.847" fill="none"/>
      </g>
      <path id="Path_46-8" data-name="Path 46" d="M8.177,16.383c-1.986-.238-1.1-.867-3.1-2.734-.512-.48-2.036-.429-2.718-.8C.651,11.9-.265,10.82.068,8.961c.448-2.5,4.552-3.072,6.9-5.358S9.324,0,9.324,0l3.752.778A6.181,6.181,0,0,0,13.7,5.09c1.215,2.286,2.966,2.382,4.2,4.766.488.943.084,2.264,0,2.988-.278,2.4-5.238,2.071-5.238,2.071S10.164,16.62,8.177,16.383Z" transform="translate(0 4.376)" fill="#e1d5c2" stroke="#707070" stroke-width="1"/>
    </g>
    <g id="Group_87" data-name="Group 87" transform="translate(2781.9 491.437) rotate(-20)">
      <g id="Rectangle_17-9" data-name="Rectangle 17" transform="matrix(0.978, 0.208, -0.208, 0.978, 11.116, 0)" fill="#e1d5c2" stroke="#707070" stroke-width="1">
        <rect width="2.445" height="6.847" stroke="none"/>
        <rect x="0.5" y="0.5" width="1.445" height="5.847" fill="none"/>
      </g>
      <path id="Path_46-9" data-name="Path 46" d="M8.177,16.382c-1.986-.238-1.1-.867-3.1-2.735-.512-.48-2.036-.429-2.718-.8C.651,11.9-.265,10.82.068,8.961c.448-2.5,4.552-3.072,6.9-5.358S9.324,0,9.324,0l3.752.778A6.18,6.18,0,0,0,13.7,5.09c1.215,2.287,2.966,2.382,4.2,4.766.488.943.084,2.264,0,2.988-.278,2.4-5.238,2.071-5.238,2.071S10.164,16.62,8.177,16.382Z" transform="translate(0 4.376)" fill="#e1d5c2" stroke="#707070" stroke-width="1"/>
    </g>
    <g id="Group_88" data-name="Group 88" transform="matrix(0.999, 0.035, -0.035, 0.999, 2394.783, 429.809)">
      <path id="Path_44-2" data-name="Path 44" d="M0,56.944l10.663,47.1,309.3-75.617L313.983,0Z" transform="translate(0 26.419)" fill="#131213" stroke="#e2caa8" stroke-width="5"/>
      <path id="Path_45-2" data-name="Path 45" d="M18.729,16.408a26.129,26.129,0,0,1-7.5,6.725A45.947,45.947,0,0,1,0,27.279l5.8,26.1H18.729a33.456,33.456,0,0,1,5.71,1.711,20.936,20.936,0,0,1,4.449,2.639,213.885,213.885,0,0,1,31.755-8.872,236.027,236.027,0,0,1,33.289-3.7A11.588,11.588,0,0,1,95.254,41.4,9.2,9.2,0,0,1,97.9,38.787s-1.38-1.057-.833-6.035c.218-1.981,2.329-3.509,3.02-5.473.982-2.789.544-5.935,0-8.4-.711-3.222-3.706-4.269-6.154-7.907A38.926,38.926,0,0,1,90.3,4.324a6.536,6.536,0,0,1-3.509-1,12.558,12.558,0,0,1-3-3.324A298.516,298.516,0,0,1,50.509,10.969,226.659,226.659,0,0,1,18.729,16.408Z" transform="translate(312.96 0)" fill="#131213" stroke="#e2caa8" stroke-width="5"/>
    </g>
    <path id="Path_138" data-name="Path 138" d="M-11663.479-14250.646c-2.623.335-5.01,3.627-5.226,6.992s6.01,7.083,6.01,7.083,13.476,2.425,21.445,4.348,10.434,3.347,10.434,3.347a86.148,86.148,0,0,1,17.688-3.9,53.9,53.9,0,0,1,15.663,1.147s-1.272,3.033-.621,5.27c.524,1.8,2.9,2.839,3.817,2.96,1.98.264,4.727-2.327,4.524-5.478s-5.332-7.118-5.332-7.118a29.213,29.213,0,0,0-7.677-1.658c-2.721-.243-6.421.549-9.288,0a61.459,61.459,0,0,1-13.217-4.112s-9.869,3.178-18.364,3.322a44.265,44.265,0,0,1-15.615-2.743s2.274-3.866,1.215-6.232S-11660.854-14250.98-11663.479-14250.646Z" transform="translate(13956.354 14740.484)" fill="#190701" stroke="#707070" stroke-width="1"/>
    <path id="Path_139" data-name="Path 139" d="M-11187.153-12835.616a37.465,37.465,0,0,0-6.7,6.842c-1.469,1.873-1.753,2.671-4.255,6.3-1.061,1.538-1.841,3.877-4.661,6.782-2.264,2.333-4.862,6.239-7.851,9.08-2.223,2.114-4.675,4.729-6.989,6.612a98.939,98.939,0,0,1-12.755,8.854l37.885-47.265Z" transform="translate(13590.379 13434.329)" fill="#744d41" stroke="#707070" stroke-width="1"/>
    <path id="Path_140" data-name="Path 140" d="M5.232,27.266C2.608,26.93.221,23.639.005,20.273S6.015,13.19,6.015,13.19,19.49,10.766,27.46,8.842,37.894,5.5,37.894,5.5A86.146,86.146,0,0,0,55.582,9.4,53.9,53.9,0,0,0,71.245,8.248s-1.273-3.034-.621-5.27c.524-1.8,2.9-2.838,3.818-2.959,1.981-.263,4.727,2.328,4.525,5.477s-5.333,7.119-5.333,7.119a29.19,29.19,0,0,1-7.676,1.658c-2.722.243-6.421-.548-9.288,0a61.477,61.477,0,0,0-13.216,4.112s-9.869-3.178-18.364-3.322A44.288,44.288,0,0,0,9.473,17.805s2.274,3.867,1.214,6.232S7.856,27.6,5.232,27.266Z" transform="matrix(0.951, -0.309, 0.309, 0.951, 2306.676, 611.47)" fill="#200d02" stroke="#707070" stroke-width="1"/>
    <path id="Path_141" data-name="Path 141" d="M-11187.153-12835.616a37.465,37.465,0,0,0-6.7,6.842c-1.469,1.873-1.753,2.671-4.255,6.3-1.061,1.538-1.841,3.877-4.661,6.782-2.264,2.333-4.862,6.239-7.851,9.08-2.223,2.114-4.675,4.729-6.989,6.612a98.939,98.939,0,0,1-12.755,8.854l37.885-47.265Z" transform="translate(13590.379 13434.329)" fill="#744d41" stroke="#707070" stroke-width="1"/>
    <path id="Path_142" data-name="Path 142" d="M5.232,27.266C2.608,26.93.221,23.639.005,20.273S6.015,13.19,6.015,13.19,19.49,10.766,27.46,8.842,37.894,5.5,37.894,5.5A86.146,86.146,0,0,0,55.582,9.4,53.9,53.9,0,0,0,71.245,8.248s-1.273-3.034-.621-5.27c.524-1.8,2.9-2.838,3.818-2.959,1.981-.263,4.727,2.328,4.525,5.477s-5.333,7.119-5.333,7.119a29.19,29.19,0,0,1-7.676,1.658c-2.722.243-6.421-.548-9.288,0a61.477,61.477,0,0,0-13.216,4.112s-9.869-3.178-18.364-3.322A44.288,44.288,0,0,0,9.473,17.805s2.274,3.867,1.214,6.232S7.856,27.6,5.232,27.266Z" transform="matrix(0.951, -0.309, 0.309, 0.951, 2306.676, 611.47)" fill="#200d02" stroke="#707070" stroke-width="1"/>
    <g id="Ellipse_43" data-name="Ellipse 43" transform="matrix(0.999, 0.035, -0.035, 0.999, 2737.209, 460.369)" fill="#e1d5c2" stroke="#707070" stroke-width="1">
      <ellipse cx="4.004" cy="4.004" rx="4.004" ry="4.004" stroke="none"/>
      <ellipse cx="4.004" cy="4.004" rx="3.504" ry="3.504" fill="none"/>
    </g>
    <g id="Ellipse_44" data-name="Ellipse 44" transform="matrix(0.999, 0.035, -0.035, 0.999, 2757.83, 456.193)" fill="#e1d5c2" stroke="#707070" stroke-width="1">
      <ellipse cx="4.004" cy="4.004" rx="4.004" ry="4.004" stroke="none"/>
      <ellipse cx="4.004" cy="4.004" rx="3.504" ry="3.504" fill="none"/>
    </g>
    <g id="Ellipse_45" data-name="Ellipse 45" transform="matrix(0.999, 0.035, -0.035, 0.999, 2781.168, 450.776)" fill="#e1d5c2" stroke="#707070" stroke-width="1">
      <ellipse cx="4.004" cy="4.004" rx="4.004" ry="4.004" stroke="none"/>
      <ellipse cx="4.004" cy="4.004" rx="3.504" ry="3.504" fill="none"/>
    </g>
    <g id="Ellipse_46" data-name="Ellipse 46" transform="matrix(0.999, 0.035, -0.035, 0.999, 2781.168, 450.776)" fill="#e1d5c2" stroke="#707070" stroke-width="1">
      <ellipse cx="4.004" cy="4.004" rx="4.004" ry="4.004" stroke="none"/>
      <ellipse cx="4.004" cy="4.004" rx="3.504" ry="3.504" fill="none"/>
    </g>
    <g id="Ellipse_47" data-name="Ellipse 47" transform="matrix(0.999, 0.035, -0.035, 0.999, 2785.236, 474.511)" fill="#e1d5c2" stroke="#707070" stroke-width="1">
      <ellipse cx="4.004" cy="4.004" rx="4.004" ry="4.004" stroke="none"/>
      <ellipse cx="4.004" cy="4.004" rx="3.504" ry="3.504" fill="none"/>
    </g>
    <g id="Ellipse_48" data-name="Ellipse 48" transform="matrix(0.999, 0.035, -0.035, 0.999, 2764.613, 478.688)" fill="#e1d5c2" stroke="#707070" stroke-width="1">
      <ellipse cx="4.004" cy="4.004" rx="4.004" ry="4.004" stroke="none"/>
      <ellipse cx="4.004" cy="4.004" rx="3.504" ry="3.504" fill="none"/>
    </g>
    <g id="Ellipse_49" data-name="Ellipse 49" transform="matrix(0.999, 0.035, -0.035, 0.999, 2741.277, 484.104)" fill="#e1d5c2" stroke="#707070" stroke-width="1">
      <ellipse cx="4.004" cy="4.004" rx="4.004" ry="4.004" stroke="none"/>
      <ellipse cx="4.004" cy="4.004" rx="3.504" ry="3.504" fill="none"/>
    </g>
    <rect id="Rectangle_35" data-name="Rectangle 35" width="11" height="61" rx="2" transform="translate(2294.455 534.322) rotate(-13)"/>
    <rect id="Rectangle_36" data-name="Rectangle 36" width="11" height="61" rx="2" transform="translate(2345.217 523.322) rotate(-13)"/>
    <rect id="Rectangle_37" data-name="Rectangle 37" width="4" height="34" transform="translate(2414.994 516.094) rotate(-11)" fill="#d9d9d9"/>
    <rect id="Rectangle_38" data-name="Rectangle 38" width="4" height="32" transform="translate(2439.363 514.094) rotate(-11)" fill="#d9d9d9"/>
    <rect id="Rectangle_39" data-name="Rectangle 39" width="3" height="32" transform="translate(2461.588 508.811) rotate(-11)" fill="#d9d9d9"/>
    <rect id="Rectangle_40" data-name="Rectangle 40" width="4" height="27" transform="translate(2477.363 509.002) rotate(-11)" fill="#d9d9d9"/>
    <rect id="Rectangle_41" data-name="Rectangle 41" width="4" height="27" transform="translate(2493.166 505.896) rotate(-11)" fill="#d9d9d9"/>
    <rect id="Rectangle_42" data-name="Rectangle 42" width="4" height="27" transform="translate(2516.199 501.46) rotate(-11)" fill="#d9d9d9"/>
    <path id="Path_143" data-name="Path 143" d="M0,0H4V27H0Z" transform="translate(2539.232 497.46) rotate(-11)" fill="#d9d9d9"/>
    <path id="Path_144" data-name="Path 144" d="M0,0H4V27H0Z" transform="translate(2562.266 494.46) rotate(-11)" fill="#d9d9d9"/>
    <path id="Path_145" data-name="Path 145" d="M0,0H4V22.527H0Z" transform="translate(2610.266 488.46) rotate(-11)" fill="#d9d9d9"/>
    <path id="Path_146" data-name="Path 146" d="M0,0H4V22.527H0Z" transform="translate(2586.266 491.555) rotate(-11)" fill="#d9d9d9"/>
    <path id="Path_147" data-name="Path 147" d="M0,0H4V22.527H0Z" transform="translate(2634.266 483.592) rotate(-11)" fill="#d9d9d9"/>
    <path id="Path_148" data-name="Path 148" d="M0,0H4V22.527H0Z" transform="translate(2660.266 479.451) rotate(-11)" fill="#d9d9d9"/>
    <path id="Path_149" data-name="Path 149" d="M0,0H4V22.527H0Z" transform="translate(2686.266 474.451) rotate(-11)" fill="#d9d9d9"/>
    <path id="Path_247" data-name="Path 247" d="M-10918.6-12969.877l-20-36.848,4.634-4.6,6.438-1.065a4.965,4.965,0,0,0-1.325,1.916,6.142,6.142,0,0,0-.228,2.742,6.847,6.847,0,0,0,2.105,4c.758.813,2.418,1.518,3.684,2.5,2.131,1.658,5.582,2.924,8,4.314,2.475,1.422,4.155,2.892,5.741,6.873a15.048,15.048,0,0,1,1.072,7.164,16.676,16.676,0,0,1-3.129,7.249,28.478,28.478,0,0,1-7,5.754" transform="translate(13369.963 13565.762)" fill="#784b3b" stroke="#707070" stroke-width="1"/>
    <g id="Group_136" data-name="Group 136" transform="matrix(0.999, 0.035, -0.035, 0.999, 2727.43, 435.909)">
      <g id="Rectangle_17-10" data-name="Rectangle 17" transform="matrix(0.978, -0.208, 0.208, 0.978, 9.692, 14.084)" fill="#e1d5c2" stroke="#707070" stroke-width="1">
        <rect width="2.445" height="6.847" stroke="none"/>
        <rect x="0.5" y="0.5" width="1.445" height="5.847" fill="none"/>
      </g>
      <path id="Path_46-10" data-name="Path 46" d="M8.177.023c-1.986.238-1.1.867-3.1,2.735-.512.48-2.036.429-2.717.8C.651,4.5-.265,5.586.067,7.444c.448,2.5,4.552,3.072,6.9,5.357s2.355,3.6,2.355,3.6l3.752-.778a6.18,6.18,0,0,1,.622-4.312c1.215-2.286,2.966-2.382,4.2-4.766.488-.943.084-2.264,0-2.988-.277-2.4-5.238-2.071-5.238-2.071S10.164-.215,8.177.023Z" transform="translate(0 0)" fill="#e1d5c2" stroke="#707070" stroke-width="1"/>
    </g>
    <g id="Group_137" data-name="Group 137" transform="matrix(0.999, 0.035, -0.035, 0.999, 2749.107, 431.785)">
      <g id="Rectangle_17-11" data-name="Rectangle 17" transform="matrix(0.978, -0.208, 0.208, 0.978, 9.692, 14.084)" fill="#e1d5c2" stroke="#707070" stroke-width="1">
        <rect width="2.445" height="6.847" stroke="none"/>
        <rect x="0.5" y="0.5" width="1.445" height="5.847" fill="none"/>
      </g>
      <path id="Path_46-11" data-name="Path 46" d="M8.177.023c-1.986.238-1.1.867-3.1,2.735-.512.48-2.036.429-2.717.8C.651,4.5-.265,5.586.067,7.444c.448,2.5,4.552,3.072,6.9,5.357s2.355,3.6,2.355,3.6l3.752-.778a6.18,6.18,0,0,1,.622-4.312c1.215-2.286,2.966-2.382,4.2-4.766.488-.943.084-2.264,0-2.988-.277-2.4-5.238-2.071-5.238-2.071S10.164-.215,8.177.023Z" transform="translate(0 0)" fill="#e1d5c2" stroke="#707070" stroke-width="1"/>
    </g>
    <g id="Group_138" data-name="Group 138" transform="translate(2770.313 425.919) rotate(-1)">
      <g id="Rectangle_17-12" data-name="Rectangle 17" transform="matrix(0.978, -0.208, 0.208, 0.978, 9.692, 14.084)" fill="#e1d5c2" stroke="#707070" stroke-width="1">
        <rect width="2.445" height="6.847" stroke="none"/>
        <rect x="0.5" y="0.5" width="1.445" height="5.847" fill="none"/>
      </g>
      <path id="Path_46-12" data-name="Path 46" d="M8.177.023c-1.986.238-1.1.867-3.1,2.734-.512.48-2.036.429-2.718.8C.651,4.5-.265,5.586.068,7.444c.448,2.5,4.552,3.072,6.9,5.358s2.355,3.6,2.355,3.6l3.752-.778a6.18,6.18,0,0,1,.622-4.312c1.215-2.286,2.966-2.382,4.2-4.766.488-.943.084-2.264,0-2.988-.278-2.4-5.238-2.071-5.238-2.071S10.164-.215,8.177.023Z" transform="translate(0 0)" fill="#e1d5c2" stroke="#707070" stroke-width="1"/>
    </g>
    <path id="Path_248" data-name="Path 248" d="M-11423.908-13384.673l24.447,2.782s8.814,3.378,17.936,7.808,9.029,5.9,15.3,8.806,9.77,2.825,9.77,2.825l17.489-11.631,26.961-9.4s20.075-.076,29.52,9.747,13.662,28.352,13.662,28.352l-115.813,8.418Z" transform="translate(13736.598 13847.01)" fill="#7e5144" stroke="#707070" stroke-width="1"/>
    <path id="Path_249" data-name="Path 249" d="M-11542.471-13382.055c-15.693-3.81-33.189,6.185-45.541,13.746-5.1,3.119-8.046,5.595-12.317,6s-7.051.618-11.4-1.893c-8.295-4.792-20.349-13.143-33.843-17.134-20.413-6.037-36.755-2.046-36.755-2.046s-15.924,3.55-28.886,13.68c-9.04,7.065-16.328,17.021-21.935,28.519-13.576,27.839-5,67.834-5,67.834s13.638,46.307,35.982,66.3,50.158,14.66,50.158,14.66,19.576-.363,39.285-14.66c3.794-2.753,17.024-14.65,22.356-24.9,1.771-2.514,3.971-5.325,4.648-6.429a27.656,27.656,0,0,1,7.848-8.052c4.137-2.3,9.532-1.908,9.532-1.908s13.328,3.237,22.3,3.639a37.693,37.693,0,0,0,13.71-2.189,18.076,18.076,0,0,0,6.547-4.009,15.288,15.288,0,0,0,4.11-4.729c1.464-3.179,3.041-7.131,1.8-11.694-2.547-9.35-17.145-10.124-19.943-16.97s5-10.549,5-10.549l21.825-46.689S-11520.273-13376.664-11542.471-13382.055Z" transform="translate(13976.01 13847.009)" stroke="#e2caa8" stroke-width="5" fill="url(#radial-gradient)"/>
    <g id="Group_139" data-name="Group 139" transform="matrix(0.921, -0.391, 0.391, 0.921, 2737.275, 497.876)">
      <g id="Rectangle_17-13" data-name="Rectangle 17" transform="matrix(0.978, 0.208, -0.208, 0.978, 11.116, 0)" fill="#e1d5c2" stroke="#707070" stroke-width="1">
        <rect width="2.445" height="6.847" stroke="none"/>
        <rect x="0.5" y="0.5" width="1.445" height="5.847" fill="none"/>
      </g>
      <path id="Path_46-13" data-name="Path 46" d="M8.177,16.383c-1.986-.238-1.1-.867-3.1-2.734-.512-.48-2.036-.429-2.718-.8C.651,11.9-.265,10.82.068,8.961c.448-2.5,4.552-3.072,6.9-5.358S9.324,0,9.324,0l3.752.778A6.181,6.181,0,0,0,13.7,5.09c1.215,2.286,2.966,2.382,4.2,4.766.488.943.084,2.264,0,2.988-.278,2.4-5.238,2.071-5.238,2.071S10.164,16.62,8.177,16.383Z" transform="translate(0 4.376)" fill="#e1d5c2" stroke="#707070" stroke-width="1"/>
    </g>
    <g id="Group_140" data-name="Group 140" transform="matrix(0.921, -0.391, 0.391, 0.921, 2758.988, 493.958)">
      <g id="Rectangle_17-14" data-name="Rectangle 17" transform="matrix(0.978, 0.208, -0.208, 0.978, 11.116, 0)" fill="#e1d5c2" stroke="#707070" stroke-width="1">
        <rect width="2.445" height="6.847" stroke="none"/>
        <rect x="0.5" y="0.5" width="1.445" height="5.847" fill="none"/>
      </g>
      <path id="Path_46-14" data-name="Path 46" d="M8.177,16.383c-1.986-.238-1.1-.867-3.1-2.734-.512-.48-2.036-.429-2.718-.8C.651,11.9-.265,10.82.068,8.961c.448-2.5,4.552-3.072,6.9-5.358S9.324,0,9.324,0l3.752.778A6.181,6.181,0,0,0,13.7,5.09c1.215,2.286,2.966,2.382,4.2,4.766.488.943.084,2.264,0,2.988-.278,2.4-5.238,2.071-5.238,2.071S10.164,16.62,8.177,16.383Z" transform="translate(0 4.376)" fill="#e1d5c2" stroke="#707070" stroke-width="1"/>
    </g>
    <g id="Group_141" data-name="Group 141" transform="translate(2781.9 491.437) rotate(-20)">
      <g id="Rectangle_17-15" data-name="Rectangle 17" transform="matrix(0.978, 0.208, -0.208, 0.978, 11.116, 0)" fill="#e1d5c2" stroke="#707070" stroke-width="1">
        <rect width="2.445" height="6.847" stroke="none"/>
        <rect x="0.5" y="0.5" width="1.445" height="5.847" fill="none"/>
      </g>
      <path id="Path_46-15" data-name="Path 46" d="M8.177,16.382c-1.986-.238-1.1-.867-3.1-2.735-.512-.48-2.036-.429-2.718-.8C.651,11.9-.265,10.82.068,8.961c.448-2.5,4.552-3.072,6.9-5.358S9.324,0,9.324,0l3.752.778A6.18,6.18,0,0,0,13.7,5.09c1.215,2.287,2.966,2.382,4.2,4.766.488.943.084,2.264,0,2.988-.278,2.4-5.238,2.071-5.238,2.071S10.164,16.62,8.177,16.382Z" transform="translate(0 4.376)" fill="#e1d5c2" stroke="#707070" stroke-width="1"/>
    </g>
    <g id="Group_142" data-name="Group 142" transform="matrix(0.999, 0.035, -0.035, 0.999, 2394.783, 429.809)">
      <path id="Path_44-3" data-name="Path 44" d="M0,56.944l10.663,47.1,309.3-75.617L313.983,0Z" transform="translate(0 26.419)" fill="#131213" stroke="#e2caa8" stroke-width="5"/>
      <path id="Path_45-3" data-name="Path 45" d="M18.729,16.408a26.129,26.129,0,0,1-7.5,6.725A45.947,45.947,0,0,1,0,27.279l5.8,26.1H18.729a33.456,33.456,0,0,1,5.71,1.711,20.936,20.936,0,0,1,4.449,2.639,213.885,213.885,0,0,1,31.755-8.872,236.027,236.027,0,0,1,33.289-3.7A11.588,11.588,0,0,1,95.254,41.4,9.2,9.2,0,0,1,97.9,38.787s-1.38-1.057-.833-6.035c.218-1.981,2.329-3.509,3.02-5.473.982-2.789.544-5.935,0-8.4-.711-3.222-3.706-4.269-6.154-7.907A38.926,38.926,0,0,1,90.3,4.324a6.536,6.536,0,0,1-3.509-1,12.558,12.558,0,0,1-3-3.324A298.516,298.516,0,0,1,50.509,10.969,226.659,226.659,0,0,1,18.729,16.408Z" transform="translate(312.96 0)" fill="#131213" stroke="#e2caa8" stroke-width="5"/>
    </g>
    <path id="Path_250" data-name="Path 250" d="M-11663.479-14250.646c-2.623.335-5.01,3.627-5.226,6.992s6.01,7.083,6.01,7.083,13.476,2.425,21.445,4.348,10.434,3.347,10.434,3.347a86.148,86.148,0,0,1,17.688-3.9,53.9,53.9,0,0,1,15.663,1.147s-1.272,3.033-.621,5.27c.524,1.8,2.9,2.839,3.817,2.96,1.98.264,4.727-2.327,4.524-5.478s-5.332-7.118-5.332-7.118a29.213,29.213,0,0,0-7.677-1.658c-2.721-.243-6.421.549-9.288,0a61.459,61.459,0,0,1-13.217-4.112s-9.869,3.178-18.364,3.322a44.265,44.265,0,0,1-15.615-2.743s2.274-3.866,1.215-6.232S-11660.854-14250.98-11663.479-14250.646Z" transform="translate(13956.354 14740.484)" fill="#190701" stroke="#707070" stroke-width="1"/>
    <path id="Path_251" data-name="Path 251" d="M-10918.6-12969.877l-20-36.848,4.634-4.6,6.438-1.065a4.965,4.965,0,0,0-1.325,1.916,6.142,6.142,0,0,0-.228,2.742,6.847,6.847,0,0,0,2.105,4c.758.813,2.418,1.518,3.684,2.5,2.131,1.658,5.582,2.924,8,4.314,2.475,1.422,4.155,2.892,5.741,6.873a15.048,15.048,0,0,1,1.072,7.164,16.676,16.676,0,0,1-3.129,7.249,28.478,28.478,0,0,1-7,5.754" transform="translate(13369.963 13565.762)" fill="#784b3b" stroke="#707070" stroke-width="1"/>
    <path id="Path_252" data-name="Path 252" d="M-11423.908-13384.673l24.447,2.782s8.814,3.378,17.936,7.808,9.029,5.9,15.3,8.806,9.77,2.825,9.77,2.825l17.489-11.631,26.961-9.4s20.075-.076,29.52,9.747,13.662,28.352,13.662,28.352l-115.813,8.418Z" transform="translate(13736.598 13847.01)" fill="#7e5144" stroke="#707070" stroke-width="1"/>
    <path id="Path_253" data-name="Path 253" d="M-11542.471-13382.055c-15.693-3.81-33.189,6.185-45.541,13.746-5.1,3.119-8.046,5.595-12.317,6s-7.051.618-11.4-1.893c-8.295-4.792-20.349-13.143-33.843-17.134-20.413-6.037-36.755-2.046-36.755-2.046s-15.924,3.55-28.886,13.68c-9.04,7.065-16.328,17.021-21.935,28.519-13.576,27.839-5,67.834-5,67.834s13.638,46.307,35.982,66.3,50.158,14.66,50.158,14.66,19.576-.363,39.285-14.66c3.794-2.753,17.024-14.65,22.356-24.9,1.771-2.514,3.971-5.325,4.648-6.429a27.656,27.656,0,0,1,7.848-8.052c4.137-2.3,9.532-1.908,9.532-1.908s13.328,3.237,22.3,3.639a37.693,37.693,0,0,0,13.71-2.189,18.076,18.076,0,0,0,6.547-4.009,15.288,15.288,0,0,0,4.11-4.729c1.464-3.179,3.041-7.131,1.8-11.694-2.547-9.35-17.145-10.124-19.943-16.97s5-10.549,5-10.549l21.825-46.689S-11520.273-13376.664-11542.471-13382.055Z" transform="translate(13976.01 13847.009)" stroke="#e2caa8" stroke-width="5" fill="url(#radial-gradient-2)"/>
    <g id="Group_143" data-name="Group 143" transform="matrix(0.921, -0.391, 0.391, 0.921, 2737.275, 497.876)">
      <g id="Rectangle_17-16" data-name="Rectangle 17" transform="matrix(0.978, 0.208, -0.208, 0.978, 11.116, 0)" fill="#e1d5c2" stroke="#707070" stroke-width="1">
        <rect width="2.445" height="6.847" stroke="none"/>
        <rect x="0.5" y="0.5" width="1.445" height="5.847" fill="none"/>
      </g>
      <path id="Path_46-16" data-name="Path 46" d="M8.177,16.383c-1.986-.238-1.1-.867-3.1-2.734-.512-.48-2.036-.429-2.718-.8C.651,11.9-.265,10.82.068,8.961c.448-2.5,4.552-3.072,6.9-5.358S9.324,0,9.324,0l3.752.778A6.181,6.181,0,0,0,13.7,5.09c1.215,2.286,2.966,2.382,4.2,4.766.488.943.084,2.264,0,2.988-.278,2.4-5.238,2.071-5.238,2.071S10.164,16.62,8.177,16.383Z" transform="translate(0 4.376)" fill="#e1d5c2" stroke="#707070" stroke-width="1"/>
    </g>
    <g id="Group_144" data-name="Group 144" transform="matrix(0.921, -0.391, 0.391, 0.921, 2758.988, 493.958)">
      <g id="Rectangle_17-17" data-name="Rectangle 17" transform="matrix(0.978, 0.208, -0.208, 0.978, 11.116, 0)" fill="#e1d5c2" stroke="#707070" stroke-width="1">
        <rect width="2.445" height="6.847" stroke="none"/>
        <rect x="0.5" y="0.5" width="1.445" height="5.847" fill="none"/>
      </g>
      <path id="Path_46-17" data-name="Path 46" d="M8.177,16.383c-1.986-.238-1.1-.867-3.1-2.734-.512-.48-2.036-.429-2.718-.8C.651,11.9-.265,10.82.068,8.961c.448-2.5,4.552-3.072,6.9-5.358S9.324,0,9.324,0l3.752.778A6.181,6.181,0,0,0,13.7,5.09c1.215,2.286,2.966,2.382,4.2,4.766.488.943.084,2.264,0,2.988-.278,2.4-5.238,2.071-5.238,2.071S10.164,16.62,8.177,16.383Z" transform="translate(0 4.376)" fill="#e1d5c2" stroke="#707070" stroke-width="1"/>
    </g>
    <g id="Group_145" data-name="Group 145" transform="translate(2781.9 491.437) rotate(-20)">
      <g id="Rectangle_17-18" data-name="Rectangle 17" transform="matrix(0.978, 0.208, -0.208, 0.978, 11.116, 0)" fill="#e1d5c2" stroke="#707070" stroke-width="1">
        <rect width="2.445" height="6.847" stroke="none"/>
        <rect x="0.5" y="0.5" width="1.445" height="5.847" fill="none"/>
      </g>
      <path id="Path_46-18" data-name="Path 46" d="M8.177,16.382c-1.986-.238-1.1-.867-3.1-2.735-.512-.48-2.036-.429-2.718-.8C.651,11.9-.265,10.82.068,8.961c.448-2.5,4.552-3.072,6.9-5.358S9.324,0,9.324,0l3.752.778A6.18,6.18,0,0,0,13.7,5.09c1.215,2.287,2.966,2.382,4.2,4.766.488.943.084,2.264,0,2.988-.278,2.4-5.238,2.071-5.238,2.071S10.164,16.62,8.177,16.382Z" transform="translate(0 4.376)" fill="#e1d5c2" stroke="#707070" stroke-width="1"/>
    </g>
    <g id="Group_146" data-name="Group 146" transform="matrix(0.999, 0.035, -0.035, 0.999, 2394.783, 429.809)">
      <path id="Path_44-4" data-name="Path 44" d="M0,56.944l10.663,47.1,309.3-75.617L313.983,0Z" transform="translate(0 26.419)" fill="#131213" stroke="#e2caa8" stroke-width="5"/>
      <path id="Path_45-4" data-name="Path 45" d="M18.729,16.408a26.129,26.129,0,0,1-7.5,6.725A45.947,45.947,0,0,1,0,27.279l5.8,26.1H18.729a33.456,33.456,0,0,1,5.71,1.711,20.936,20.936,0,0,1,4.449,2.639,213.885,213.885,0,0,1,31.755-8.872,236.027,236.027,0,0,1,33.289-3.7A11.588,11.588,0,0,1,95.254,41.4,9.2,9.2,0,0,1,97.9,38.787s-1.38-1.057-.833-6.035c.218-1.981,2.329-3.509,3.02-5.473.982-2.789.544-5.935,0-8.4-.711-3.222-3.706-4.269-6.154-7.907A38.926,38.926,0,0,1,90.3,4.324a6.536,6.536,0,0,1-3.509-1,12.558,12.558,0,0,1-3-3.324A298.516,298.516,0,0,1,50.509,10.969,226.659,226.659,0,0,1,18.729,16.408Z" transform="translate(312.96 0)" fill="#131213" stroke="#e2caa8" stroke-width="5"/>
    </g>
    <path id="Path_254" data-name="Path 254" d="M-11663.479-14250.646c-2.623.335-5.01,3.627-5.226,6.992s6.01,7.083,6.01,7.083,13.476,2.425,21.445,4.348,10.434,3.347,10.434,3.347a86.148,86.148,0,0,1,17.688-3.9,53.9,53.9,0,0,1,15.663,1.147s-1.272,3.033-.621,5.27c.524,1.8,2.9,2.839,3.817,2.96,1.98.264,4.727-2.327,4.524-5.478s-5.332-7.118-5.332-7.118a29.213,29.213,0,0,0-7.677-1.658c-2.721-.243-6.421.549-9.288,0a61.459,61.459,0,0,1-13.217-4.112s-9.869,3.178-18.364,3.322a44.265,44.265,0,0,1-15.615-2.743s2.274-3.866,1.215-6.232S-11660.854-14250.98-11663.479-14250.646Z" transform="translate(13956.354 14740.484)" fill="#190701" stroke="#707070" stroke-width="1"/>
    <path id="Path_255" data-name="Path 255" d="M-11187.153-12835.616a37.465,37.465,0,0,0-6.7,6.842c-1.469,1.873-1.753,2.671-4.255,6.3-1.061,1.538-1.841,3.877-4.661,6.782-2.264,2.333-4.862,6.239-7.851,9.08-2.223,2.114-4.675,4.729-6.989,6.612a98.939,98.939,0,0,1-12.755,8.854l37.885-47.265Z" transform="translate(13590.379 13434.329)" fill="#744d41" stroke="#707070" stroke-width="1"/>
    <path id="Path_256" data-name="Path 256" d="M5.232,27.266C2.608,26.93.221,23.639.005,20.273S6.015,13.19,6.015,13.19,19.49,10.766,27.46,8.842,37.894,5.5,37.894,5.5A86.146,86.146,0,0,0,55.582,9.4,53.9,53.9,0,0,0,71.245,8.248s-1.273-3.034-.621-5.27c.524-1.8,2.9-2.838,3.818-2.959,1.981-.263,4.727,2.328,4.525,5.477s-5.333,7.119-5.333,7.119a29.19,29.19,0,0,1-7.676,1.658c-2.722.243-6.421-.548-9.288,0a61.477,61.477,0,0,0-13.216,4.112s-9.869-3.178-18.364-3.322A44.288,44.288,0,0,0,9.473,17.805s2.274,3.867,1.214,6.232S7.856,27.6,5.232,27.266Z" transform="matrix(0.951, -0.309, 0.309, 0.951, 2306.676, 611.47)" fill="#200d02" stroke="#707070" stroke-width="1"/>
    <path id="Path_257" data-name="Path 257" d="M-11187.153-12835.616a37.465,37.465,0,0,0-6.7,6.842c-1.469,1.873-1.753,2.671-4.255,6.3-1.061,1.538-1.841,3.877-4.661,6.782-2.264,2.333-4.862,6.239-7.851,9.08-2.223,2.114-4.675,4.729-6.989,6.612a98.939,98.939,0,0,1-12.755,8.854l37.885-47.265Z" transform="translate(13590.379 13434.329)" fill="#744d41" stroke="#707070" stroke-width="1"/>
    <path id="Path_258" data-name="Path 258" d="M5.232,27.266C2.608,26.93.221,23.639.005,20.273S6.015,13.19,6.015,13.19,19.49,10.766,27.46,8.842,37.894,5.5,37.894,5.5A86.146,86.146,0,0,0,55.582,9.4,53.9,53.9,0,0,0,71.245,8.248s-1.273-3.034-.621-5.27c.524-1.8,2.9-2.838,3.818-2.959,1.981-.263,4.727,2.328,4.525,5.477s-5.333,7.119-5.333,7.119a29.19,29.19,0,0,1-7.676,1.658c-2.722.243-6.421-.548-9.288,0a61.477,61.477,0,0,0-13.216,4.112s-9.869-3.178-18.364-3.322A44.288,44.288,0,0,0,9.473,17.805s2.274,3.867,1.214,6.232S7.856,27.6,5.232,27.266Z" transform="matrix(0.951, -0.309, 0.309, 0.951, 2306.676, 611.47)" fill="#200d02" stroke="#707070" stroke-width="1"/>
    <g id="Ellipse_72" data-name="Ellipse 72" transform="matrix(0.999, 0.035, -0.035, 0.999, 2737.209, 460.369)" fill="#e1d5c2" stroke="#707070" stroke-width="1">
      <ellipse cx="4.004" cy="4.004" rx="4.004" ry="4.004" stroke="none"/>
      <ellipse cx="4.004" cy="4.004" rx="3.504" ry="3.504" fill="none"/>
    </g>
    <g id="Ellipse_73" data-name="Ellipse 73" transform="matrix(0.999, 0.035, -0.035, 0.999, 2757.83, 456.193)" fill="#e1d5c2" stroke="#707070" stroke-width="1">
      <ellipse cx="4.004" cy="4.004" rx="4.004" ry="4.004" stroke="none"/>
      <ellipse cx="4.004" cy="4.004" rx="3.504" ry="3.504" fill="none"/>
    </g>
    <g id="Ellipse_74" data-name="Ellipse 74" transform="matrix(0.999, 0.035, -0.035, 0.999, 2781.168, 450.776)" fill="#e1d5c2" stroke="#707070" stroke-width="1">
      <ellipse cx="4.004" cy="4.004" rx="4.004" ry="4.004" stroke="none"/>
      <ellipse cx="4.004" cy="4.004" rx="3.504" ry="3.504" fill="none"/>
    </g>
    <g id="Ellipse_75" data-name="Ellipse 75" transform="matrix(0.999, 0.035, -0.035, 0.999, 2781.168, 450.776)" fill="#e1d5c2" stroke="#707070" stroke-width="1">
      <ellipse cx="4.004" cy="4.004" rx="4.004" ry="4.004" stroke="none"/>
      <ellipse cx="4.004" cy="4.004" rx="3.504" ry="3.504" fill="none"/>
    </g>
    <g id="Ellipse_76" data-name="Ellipse 76" transform="matrix(0.999, 0.035, -0.035, 0.999, 2785.236, 474.511)" fill="#e1d5c2" stroke="#707070" stroke-width="1">
      <ellipse cx="4.004" cy="4.004" rx="4.004" ry="4.004" stroke="none"/>
      <ellipse cx="4.004" cy="4.004" rx="3.504" ry="3.504" fill="none"/>
    </g>
    <g id="Ellipse_77" data-name="Ellipse 77" transform="matrix(0.999, 0.035, -0.035, 0.999, 2764.613, 478.688)" fill="#e1d5c2" stroke="#707070" stroke-width="1">
      <ellipse cx="4.004" cy="4.004" rx="4.004" ry="4.004" stroke="none"/>
      <ellipse cx="4.004" cy="4.004" rx="3.504" ry="3.504" fill="none"/>
    </g>
    <g id="Ellipse_78" data-name="Ellipse 78" transform="matrix(0.999, 0.035, -0.035, 0.999, 2741.277, 484.104)" fill="#e1d5c2" stroke="#707070" stroke-width="1">
      <ellipse cx="4.004" cy="4.004" rx="4.004" ry="4.004" stroke="none"/>
      <ellipse cx="4.004" cy="4.004" rx="3.504" ry="3.504" fill="none"/>
    </g>
    <rect id="Rectangle_106" data-name="Rectangle 106" width="11" height="61" rx="2" transform="translate(2294.455 534.322) rotate(-13)"/>
    <rect id="Rectangle_107" data-name="Rectangle 107" width="11" height="61" rx="2" transform="translate(2345.217 523.322) rotate(-13)"/>
    <rect id="Rectangle_108" data-name="Rectangle 108" width="4" height="34" transform="translate(2414.994 516.094) rotate(-11)" fill="#d9d9d9"/>
    <rect id="Rectangle_109" data-name="Rectangle 109" width="4" height="32" transform="translate(2439.363 514.094) rotate(-11)" fill="#d9d9d9"/>
    <rect id="Rectangle_110" data-name="Rectangle 110" width="3" height="32" transform="translate(2461.588 508.811) rotate(-11)" fill="#d9d9d9"/>
    <rect id="Rectangle_111" data-name="Rectangle 111" width="4" height="27" transform="translate(2477.363 509.003) rotate(-11)" fill="#d9d9d9"/>
    <rect id="Rectangle_112" data-name="Rectangle 112" width="4" height="27" transform="translate(2493.166 505.896) rotate(-11)" fill="#d9d9d9"/>
    <rect id="Rectangle_113" data-name="Rectangle 113" width="4" height="27" transform="translate(2516.199 501.46) rotate(-11)" fill="#d9d9d9"/>
    <path id="Path_259" data-name="Path 259" d="M0,0H4V27H0Z" transform="translate(2539.232 497.46) rotate(-11)" fill="#d9d9d9"/>
    <path id="Path_260" data-name="Path 260" d="M0,0H4V27H0Z" transform="translate(2562.266 494.46) rotate(-11)" fill="#d9d9d9"/>
    <path id="Path_261" data-name="Path 261" d="M0,0H4V22.527H0Z" transform="translate(2610.266 488.46) rotate(-11)" fill="#d9d9d9"/>
    <path id="Path_262" data-name="Path 262" d="M0,0H4V22.527H0Z" transform="translate(2586.266 491.555) rotate(-11)" fill="#d9d9d9"/>
    <path id="Path_263" data-name="Path 263" d="M0,0H4V22.527H0Z" transform="translate(2634.266 483.593) rotate(-11)" fill="#d9d9d9"/>
    <path id="Path_264" data-name="Path 264" d="M0,0H4V22.527H0Z" transform="translate(2660.266 479.451) rotate(-11)" fill="#d9d9d9"/>
    <path id="Path_265" data-name="Path 265" d="M0,0H4V22.527H0Z" transform="translate(2686.266 474.451) rotate(-11)" fill="#d9d9d9"/>
  </g>
</svg>
