<svg xmlns="http://www.w3.org/2000/svg" width="594.322" height="384.221" viewBox="0 0 594.322 384.221">
  <g id="Group_135" data-name="Group 135" transform="translate(-789.511 -1048)">
    <g id="Group_128" data-name="Group 128" transform="translate(789.511 1048)">
      <path id="Path_216" data-name="Path 216" d="M126.72,355.542v35.08l164.132,106.8,291.9-81.9q1.7-23.763,3.4-47.527" transform="translate(-126.72 -113.199)" fill="#1a1818"/>
      <path id="Path_217" data-name="Path 217" d="M128.224,346.448l162.289,95.6L586.19,362.01l-182.3-73.363Z" transform="translate(-126.921 -104.24)" fill="#ff98fb"/>
      <g id="Group_123" data-name="Group 123" transform="translate(82.818 202.647)">
        <path id="Path_218" data-name="Path 218" d="M376.819,309.712c-74.078.437-155.592,29.544-154.462,53.025,1.087,22.606,78.752,39.492,137.827,39.971,74.38.6,160.533-24.468,160.3-48.536C520.253,331.374,442.507,309.325,376.819,309.712Z" transform="translate(-222.345 -309.707)" fill="#1a1818"/>
        <path id="Path_219" data-name="Path 219" d="M386.976,343.559c-19.44.626-41.354,9.456-40.957,16.947.38,7.187,21.28,12.963,38.133,12.711,20.162-.3,42.762-9.356,42.369-16.948C426.145,348.99,404.621,342.99,386.976,343.559Z" transform="translate(-238.907 -314.236)" fill="#fff"/>
      </g>
      <path id="Path_220" data-name="Path 220" d="M406.1,482.276" transform="translate(-164.136 -130.171)" fill="#1a1818"/>
      <g id="Group_124" data-name="Group 124" transform="translate(263.693 186.317)">
        <rect id="Rectangle_96" data-name="Rectangle 96" width="15.286" height="5.643" rx="1.305" transform="translate(0.023 5.037)" fill="#1a1818"/>
        <ellipse id="Ellipse_70" data-name="Ellipse 70" cx="7.658" cy="5.037" rx="7.658" ry="5.037" transform="translate(0 4.983)" fill="#1a1818"/>
        <ellipse id="Ellipse_71" data-name="Ellipse 71" cx="7.658" cy="5.037" rx="7.658" ry="5.037" transform="translate(0.023)" fill="#fff" stroke="#1a1818" stroke-miterlimit="10" stroke-width="0.5"/>
      </g>
      <g id="Group_125" data-name="Group 125" transform="translate(135.498 239.005)">
        <g id="Group_120" data-name="Group 120" transform="translate(0 0)">
          <path id="Path_205" data-name="Path 205" d="M302.923,376.763c-2.5-.978-3.742-1.49-6.228-2.566-.347.484-.521.727-.865,1.211a20.548,20.548,0,0,1-1.715,2.069,9.343,9.343,0,0,1-2.526,1.9,9.527,9.527,0,0,1-3.56.984,12.11,12.11,0,0,1-4.86-.717c.371-1.083.564-1.622.96-2.7a6,6,0,0,0,2.938.673,5.589,5.589,0,0,0,2.349-.66,6.977,6.977,0,0,0,1.8-1.406q.708-.773,1.33-1.592c.361-.481.542-.721.906-1.2-2.478-1.129-3.712-1.718-6.171-2.951.761-.9,1.145-1.354,1.917-2.254,2.4,1.214,3.6,1.794,6.015,2.907,1.06-1.374,1.6-2.058,2.68-3.424,1.216.568,1.826.845,3.047,1.387-1.036,1.38-1.548,2.072-2.56,3.457,2.424,1.06,3.639,1.565,6.076,2.53C303.835,375.348,303.53,375.819,302.923,376.763Z" transform="translate(-283.17 -353.742)" fill="#fff"/>
          <path id="Path_206" data-name="Path 206" d="M309.782,373.8c1.06.414,1.591.616,2.653,1.012.4-.655.607-.981,1.016-1.635,1.245.467,1.867.694,3.115,1.135-.389.658-.581.988-.965,1.647q5.626,2.011,11.412,3.611c-.193.949-.285,1.426-.462,2.377a41.318,41.318,0,0,1-6.207,1.312,56.824,56.824,0,0,1-6.263.489c-.272-1.051-.4-1.578-.637-2.629a36.075,36.075,0,0,0,3.868-.1q1.818-.149,3.617-.465c-2.685-.828-4.026-1.268-6.7-2.2q-3.056,5.358-5.869,10.75c-1.432-.482-2.148-.729-3.58-1.239q2.98-5.358,6.206-10.676c-1.088-.4-1.632-.607-2.718-1.027C308.864,375.212,309.168,374.74,309.782,373.8Zm7.921,10.916q2.142,3.583,4.024,7.466c-1.408.28-2.119.414-3.553.671q-.861-1.932-1.885-3.832t-2.123-3.727C315.594,385.072,316.3,384.956,317.7,384.713Z" transform="translate(-286.063 -354.564)" fill="#fff"/>
          <path id="Path_207" data-name="Path 207" d="M343.958,398.478c-1.4-.249-2.1-.378-3.507-.65.114-.4.172-.607.288-1.012q-5.026-.937-10.008-2.182c-.145.4-.216.6-.36,1-1.409-.34-2.117-.517-3.529-.882q2.674-6.92,5.688-13.813,7.6,2.036,15.33,3.443Q345.772,391.426,343.958,398.478Zm-2.5-4.17c.939-3.211,1.428-4.815,2.444-8.023q-4.642-.885-9.223-2.059c-1.26,3.168-1.87,4.754-3.046,7.927Q336.524,393.382,341.463,394.308Z" transform="translate(-289.019 -355.605)" fill="#fff"/>
          <path id="Path_208" data-name="Path 208" d="M353.814,400.1c-1.4-.2-2.1-.312-3.494-.54q1.6-6.837,3.454-13.672c2.439.406,3.657.589,6.094.915.165-.75.249-1.125.417-1.874,1.256.169,1.885.248,3.14.4-.15.752-.223,1.128-.371,1.879,2.707.318,4.06.454,6.763.676-.146,1.02-.217,1.531-.359,2.551l-.694-.058c-.381,2.65-.564,3.974-.914,6.624a6.294,6.294,0,0,1-.572,2,3.407,3.407,0,0,1-1.21,1.356,5.04,5.04,0,0,1-1.989.7,10.985,10.985,0,0,1-2.861,0L360.75,401c-.183-1.057-.27-1.585-.437-2.642.506.061.759.089,1.264.146a3.086,3.086,0,0,0,2.128-.293,2.235,2.235,0,0,0,.779-1.528c.409-2.645.622-3.968,1.065-6.613-3.685-.376-5.531-.605-9.225-1.157C355.259,393.387,354.757,395.625,353.814,400.1Z" transform="translate(-292.163 -356.139)" fill="#fff"/>
          <path id="Path_209" data-name="Path 209" d="M402.121,395.8c.047.817.07,1.224.117,2.04a6.133,6.133,0,0,1-.187,2.045,3.185,3.185,0,0,1-.929,1.5,4.707,4.707,0,0,1-1.8.967,10.458,10.458,0,0,1-2.765.4q-5.437.205-10.888.046c.042-1.024.063-1.536.108-2.559q5.338.155,10.662-.043a2.894,2.894,0,0,0,2.019-.586,2.176,2.176,0,0,0,.457-1.611c-.03-.816-.045-1.225-.074-2.041-3.055.126-4.583.161-7.647.174a4.681,4.681,0,0,1-3.045-.839,2.753,2.753,0,0,1-.948-2.391c.032-.749.049-1.123.084-1.872-.77-.012-1.155-.022-1.924-.041.061-1.024.091-1.536.154-2.561q8.157.212,16.288-.26l.147,2.555q-5.732.357-11.48.333c-.016.748-.025,1.123-.042,1.872a.609.609,0,0,0,.151.474.985.985,0,0,0,.653.149q5.877,0,11.734-.388c.066,1.031.1,1.545.165,2.575Z" transform="translate(-296.855 -356.573)" fill="#fff"/>
          <path id="Path_210" data-name="Path 210" d="M425.623,400.1c-1.362.208-2.043.306-3.405.491l-.16-1.021c-3.879.528-5.821.747-9.709,1.1.04.411.061.617.1,1.027-1.364.123-2.047.179-3.414.28q-.559-7.15-1.133-14.3,7.575-.56,15.1-1.712Q424.368,393.027,425.623,400.1Zm-3.967-3.06c-.518-3.24-.784-4.86-1.327-8.1-3.617.495-5.428.7-9.055,1.026.333,3.262.5,4.892.823,8.154,3.828-.345,5.74-.56,9.559-1.082Z" transform="translate(-299.874 -356.277)" fill="#fff"/>
          <path id="Path_211" data-name="Path 211" d="M434.943,398.447c-1.361.25-2.042.37-3.4.6q-1.345-6.82-2.812-13.629c2.392-.4,3.587-.623,5.974-1.1-.194-.738-.292-1.106-.488-1.843,1.232-.248,1.846-.376,3.076-.643.215.734.32,1.1.533,1.834,2.651-.577,3.974-.889,6.617-1.561.339.981.507,1.472.839,2.454l-.679.171c.85,2.553,1.266,3.831,2.079,6.391a5.916,5.916,0,0,1,.316,2.031,2.957,2.957,0,0,1-.57,1.644,4.535,4.535,0,0,1-1.58,1.285,10.645,10.645,0,0,1-2.674.912l-.46.1c-.6-.921-.906-1.382-1.5-2.306.495-.1.741-.159,1.236-.267a2.854,2.854,0,0,0,1.861-.947,2.018,2.018,0,0,0,.077-1.66c-.754-2.571-1.139-3.856-1.928-6.423-3.607.838-5.412,1.218-9.031,1.885C433.469,391.8,433.973,394.015,434.943,398.447Z" transform="translate(-302.663 -355.724)" fill="#fff"/>
          <path id="Path_212" data-name="Path 212" d="M466.517,390.881c-.2-.469-.3-.7-.5-1.17a25.643,25.643,0,0,1-5.121.839,13.67,13.67,0,0,1-4.5-.435,8.786,8.786,0,0,1-3.493-1.879,8.123,8.123,0,0,1-2.22-3.467c-.632-1.794-.954-2.69-1.607-4.481q7.5-2,14.85-4.6c.481.945.72,1.418,1.192,2.364q-5.951,2.132-12.032,3.819c.333.866.5,1.3.828,2.167a5.75,5.75,0,0,0,4.231,3.654,10.173,10.173,0,0,0,3.248.262,18.219,18.219,0,0,0,3.6-.627c-.75-1.725-1.131-2.587-1.905-4.308,1.283-.422,1.924-.638,3.2-1.083,1.493,3.114,2.219,4.673,3.629,7.8C468.562,390.21,467.88,390.438,466.517,390.881Z" transform="translate(-305.389 -354.902)" fill="#fff"/>
          <path id="Path_213" data-name="Path 213" d="M480.453,369.186c4.174-1.91,8.173-3.824,12.294-5.885.71.869,1.063,1.3,1.762,2.176-1.891.986-2.842,1.465-4.747,2.391,2.358,3.2,3.508,4.809,5.743,8.043,2.79-1.326,4.182-2.017,6.954-3.461.681.876,1.018,1.316,1.69,2.195q-8.639,4.469-17.621,8.154c-.527-.926-.793-1.388-1.328-2.312,2.8-1.156,4.193-1.762,6.978-3.029-2.135-3.268-3.232-4.894-5.487-8.132-1.9.883-2.856,1.31-4.769,2.137C481.338,370.552,481.045,370.1,480.453,369.186Z" transform="translate(-309.591 -353.242)" fill="#fff"/>
          <path id="Path_214" data-name="Path 214" d="M500.346,359.055c4.059-2.409,7.922-4.8,11.877-7.368.887.8,1.328,1.193,2.206,1.993-1.821,1.225-2.738,1.819-4.581,2.977,2.985,2.959,4.447,4.453,7.3,7.464,2.726-1.659,4.083-2.519,6.774-4.308.86.809,1.287,1.214,2.137,2.028-5.571,3.672-11.355,7.078-17.292,10.226-.689-.874-1.035-1.31-1.733-2.179,2.754-1.471,4.127-2.234,6.857-3.826-2.745-3.054-4.149-4.569-7.022-7.574-1.846,1.109-2.774,1.648-4.639,2.7C501.483,360.329,501.106,359.9,500.346,359.055Z" transform="translate(-312.255 -351.687)" fill="#fff"/>
        </g>
      </g>
      <g id="Group_127" data-name="Group 127" transform="translate(157.299 207.387)">
        <g id="Group_126" data-name="Group 126">
          <path id="Path_221" data-name="Path 221" d="M308.342,344.145c.97-6.184,1.524-9.28,2.774-15.472,1.058.163,1.586.246,2.639.418-1.06,4.953-1.545,7.43-2.423,12.381,2.372-1.375,3.57-2.049,5.986-3.369-1.149-1.428-1.729-2.139-2.9-3.556.842-.649,1.265-.972,2.116-1.614,2.667,3.225,3.972,4.853,6.525,8.134-.819.619-1.227.93-2.038,1.556-.8-.98-1.2-1.47-2-2.444-3.78,1.983-5.645,3.01-9.32,5.127C309.158,344.839,308.887,344.607,308.342,344.145Z" transform="translate(-308.342 -316.987)" fill="#fff"/>
          <path id="Path_222" data-name="Path 222" d="M343.536,324.227q-1.251.443-2.526.857t-2.674.8l.45,2.564c2.651-.466,3.978-.683,6.637-1.085l.4,2.64c-2.633.4-3.948.612-6.573,1.074l.358,2.038a8.65,8.65,0,0,1,.139,2.109,3.6,3.6,0,0,1-.478,1.61,3.321,3.321,0,0,1-1.177,1.142,6.029,6.029,0,0,1-1.947.684l-.2.038c-.388-1-.583-1.505-.974-2.507l.629-.122a1.819,1.819,0,0,0,1.4-.808,2.748,2.748,0,0,0,.094-1.691l-.377-2.034c-1.279.237-1.918.359-3.195.611-.207-1.047-.31-1.571-.517-2.618,1.289-.255,1.934-.378,3.225-.618l-.442-2.384q-1.639.372-3.4.721c-.308-1.019-.462-1.528-.773-2.545q1.639-.327,3.114-.693t2.825-.752q1.35-.386,2.618-.778t2.513-.791C343.024,322.7,343.2,323.209,343.536,324.227Z" transform="translate(-311.458 -316.051)" fill="#fff"/>
          <path id="Path_223" data-name="Path 223" d="M348.4,335.378c1.75-6,2.7-9,4.724-14.971,1.022.3,1.531.451,2.546.76-1.683,4.772-2.48,7.163-3.981,11.954,2.513-1.051,3.78-1.562,6.333-2.554-.948-1.566-1.429-2.347-2.4-3.905.914-.533,1.373-.8,2.294-1.323,2.213,3.547,3.289,5.331,5.384,8.918-.888.506-1.33.761-2.21,1.274-.658-1.076-.99-1.613-1.659-2.684-3.984,1.471-5.953,2.243-9.845,3.859C349.118,336.174,348.881,335.909,348.4,335.378Z" transform="translate(-313.707 -315.88)" fill="#fff"/>
          <path id="Path_224" data-name="Path 224" d="M369.66,334.133c-1,.082-1.5.126-2.5.217-.523-5.715-.786-8.573-1.309-14.289,2.027-.185,3.042-.268,5.071-.418l-.144-1.951c1.07-.079,1.6-.116,2.674-.184l.126,1.953c2.258-.145,3.387-.206,5.648-.306l.117,2.645-.565.025c.127,2.746.191,4.12.318,6.866a8.713,8.713,0,0,1-.131,2.111,3.621,3.621,0,0,1-.677,1.536,3.3,3.3,0,0,1-1.308.982,5.961,5.961,0,0,1-2.011.43l-.338.022c-.32-1.041-.481-1.562-.8-2.6.372-.025.559-.036.933-.06a1.808,1.808,0,0,0,1.482-.624,2.748,2.748,0,0,0,.307-1.665c-.152-2.745-.229-4.118-.38-6.864-2.991.166-4.485.269-7.471.514C369.085,327.137,369.277,329.469,369.66,334.133Z" transform="translate(-316.044 -315.492)" fill="#fff"/>
          <path id="Path_225" data-name="Path 225" d="M388.16,317a8.407,8.407,0,0,0-.88.708q-.478.434-.928.925t-.838,1a8.92,8.92,0,0,0-.632.944c-.834-.668-1.254-1-2.1-1.661a11.142,11.142,0,0,1,.7-.94q.433-.527.918-1.057t.963-1a8.136,8.136,0,0,1,.855-.748C387,315.907,387.389,316.272,388.16,317Z" transform="translate(-318.311 -315.18)" fill="#fff"/>
          <path id="Path_226" data-name="Path 226" d="M403.852,326.557c-.027.845-.041,1.268-.068,2.113a8.673,8.673,0,0,1-.294,2.093,3.611,3.611,0,0,1-.794,1.478,3.291,3.291,0,0,1-1.381.877,5.927,5.927,0,0,1-2.037.272c-3.176-.049-4.764-.05-7.94-.006l-.037-2.648c3.189-.044,4.784-.042,7.973.006a1.8,1.8,0,0,0,1.537-.506,2.817,2.817,0,0,0,.424-1.637l.048-2.113c-2.388-.053-3.581-.067-5.969-.069a3.207,3.207,0,0,1-2.4-.847,3.417,3.417,0,0,1-.851-2.45l-.021-1.935c-.632.006-.948.01-1.58.021-.017-1.058-.026-1.588-.043-2.647,5.511-.09,8.268-.068,13.778.107-.034,1.058-.051,1.588-.085,2.646-3.78-.12-5.671-.15-9.453-.144,0,.774,0,1.161,0,1.935a.766.766,0,0,0,.129.489.674.674,0,0,0,.526.155c3.766,0,5.649.036,9.413.166-.037,1.067-.055,1.6-.093,2.667Z" transform="translate(-319.334 -315.626)" fill="#fff"/>
          <path id="Path_227" data-name="Path 227" d="M419.54,332.982c-1-.077-1.505-.113-2.509-.182l.892-13.138c2.437.165,3.656.262,6.09.48l.178-1.995c1.02.092,1.53.139,2.551.24-.079.8-.118,1.2-.2,1.993,2.707.267,4.06.416,6.762.747l-.325,2.649-.679-.082-.784,6.516a7.535,7.535,0,0,1-.326,1.462,4.027,4.027,0,0,1-.679,1.264,3.26,3.26,0,0,1-1.133.887,4.074,4.074,0,0,1-1.672.364c-.139-1.08-.21-1.62-.352-2.7a1.672,1.672,0,0,0,1.149-.413,1.857,1.857,0,0,0,.474-1.156l.723-6.522c-1.368-.152-2.052-.223-3.421-.358-.5,5.056-.747,7.583-1.245,12.64-.959-.094-1.438-.139-2.4-.225.453-5.061.68-7.59,1.133-12.651-1.37-.122-2.055-.179-3.427-.286C420.025,326.7,419.863,328.8,419.54,332.982Z" transform="translate(-322.898 -315.577)" fill="#fff"/>
          <path id="Path_228" data-name="Path 228" d="M434.42,334.448c3.313-5.3,5.036-7.927,8.615-13.125.9.566,1.352.851,2.246,1.424-2.92,4.134-4.336,6.219-7.084,10.422,2.7-.328,4.064-.475,6.794-.736-.489-1.765-.739-2.647-1.251-4.41,1.025-.264,1.539-.394,2.571-.649,1.168,4.014,1.722,6.024,2.766,10.047-.994.246-1.491.371-2.479.625-.342-1.214-.515-1.821-.869-3.035-4.241.332-6.348.54-10.529,1.037C434.89,335.407,434.734,335.087,434.42,334.448Z" transform="translate(-325.227 -316.003)" fill="#fff"/>
          <path id="Path_229" data-name="Path 229" d="M456.6,324.311c4.311.819,6.461,1.271,10.746,2.258l-.594,2.58c-1.609-.371-2.415-.55-4.028-.9l-2,9.329c2.1.452,3.155.689,5.254,1.184l-.608,2.577c-5.136-1.211-7.717-1.753-12.892-2.709l.481-2.6c2.105.389,3.156.594,5.255,1.025.767-3.739,1.151-5.608,1.918-9.348-1.606-.329-2.41-.488-4.02-.794C456.309,325.872,456.407,325.351,456.6,324.311Z" transform="translate(-327.645 -316.403)" fill="#fff"/>
          <path id="Path_230" data-name="Path 230" d="M469.319,340.418l.818-.076,3.036-12.448c1.033.253,1.55.381,2.582.643l-2.906,11.449a45.109,45.109,0,0,0,4.462-.821,39.3,39.3,0,0,0,4.267-1.276c.358,1,.534,1.5.882,2.5a38.709,38.709,0,0,1-6.318,1.745q-3.234.607-6.45.895C469.547,341.983,469.471,341.462,469.319,340.418Z" transform="translate(-329.9 -316.883)" fill="#fff"/>
        </g>
      </g>
      <path id="Path_231" data-name="Path 231" d="M504.277,305.853c-.676-.813,26.609-15.616,28.073-37.186,1.192-17.552-15.889-22.269-16.04-41.436-.147-18.891,16.269-36.5,30.838-44.851,21.668-12.423,34.879-1.869,48.561-15.469,9.875-9.815,13.892-26.146,12.457-39.153-1.65-14.953-9.8-19.112-7.576-30.721,1.991-10.41,11.265-21.3,20.349-21.313,7.494-.013,15.023,10.346,29.776,31.064,9.371,13.16,9.8,15.591,15.557,20.6,3.309,2.881,13.858,12.068,29.008,13.8,17.013,1.939,22.975-7.449,35.365-2.9,4.108,1.507,8.351,6.25,16.669,15.675,16.46,18.649,24.682,28.156,24.275,37.077-.314,6.9-3.886,11.717-11.03,21.343-8.992,12.116-15.447,20.814-23.911,21.028-2.759.07-7.572-.715-36.9-31.635-7.91-8.34-11.883-12.841-16.954-12.113-6.542.94-11.942,10.162-12.939,18.322-1.208,9.892,4.617,13.631,2.136,18.1-4.032,7.252-24.475,6.516-40.836-.4-15.634-6.611-23.038-16.965-26.814-14.336-4.412,3.07.482,20.832.482,20.831h0s5.3,14.075,1.564,25.22c-2.041,6.09-7.532,13.554-14.022,13.933-7.5.437-10.459-8.921-15.872-7.725-8.086,1.788-9.755,24.5-12.684,24.079-.262-.037-.439-.245-.682-.62-3.214-4.976-.213-12.256-1.739-13.914C556.808,268.169,505.26,307.036,504.277,305.853Z" transform="translate(-177.282 -75.725)" fill="#fff"/>
    </g>
    <g id="Group_105" data-name="Group 105" transform="translate(1007.31 1285.343) rotate(-8)">
      <path id="Path_35" data-name="Path 35" d="M10.878,0A14.758,14.758,0,0,0,4.566,1.882,40.561,40.561,0,0,0,.4,2.028c-1.253.18.862,1.376.862,1.376L5.931,6.09A7.013,7.013,0,0,0,7.09,7.447,12.029,12.029,0,0,0,8.873,8.709s.092.209,0,.2a14.43,14.43,0,0,1-3.248-.886A11.3,11.3,0,0,1,3.315,6.844c-.356-.244-.586-.587-1.054-.623a.989.989,0,0,0-.871.456,2.972,2.972,0,0,0-.532.989,8.646,8.646,0,0,0,.532,3.06,9.553,9.553,0,0,0,1.783,2.661h.37a5.982,5.982,0,0,1,1.225-1.124,14.027,14.027,0,0,1,2.225-1.012h7.685a7.142,7.142,0,0,1,1.831.735c.919.534,1.463,2.1,2.574,1.1s2-5.24,2-5.24a4.987,4.987,0,0,0-.663-1.134,2.4,2.4,0,0,0-.845-.627,19.584,19.584,0,0,1-3.6,2.066,10.238,10.238,0,0,1-2.806.757.3.3,0,0,1-.279-.2,12.222,12.222,0,0,0,1.787-1.262,5.876,5.876,0,0,0,1.111-1.357s6.31-3.5,6.075-3.685-.25-.267-1.446-.4c-.466-.054-1.054.028-1.635,0A16.4,16.4,0,0,1,17.1,1.824S15.991,1.3,14.734.819A10.547,10.547,0,0,0,10.878,0Z" fill="#030504"/>
      <path id="Path_36" data-name="Path 36" d="M5.964,2.03s-.691-.4-1.409-.889A5.636,5.636,0,0,0,2.468.018,2.068,2.068,0,0,0,1.075.439C.46.755.3.795.073,1.088A.365.365,0,0,0,.16,1.6l.02.013,1.437-.8a.332.332,0,0,1,.2.061c.089.068.079.267.079.267L.1,2.362A.311.311,0,0,0,0,2.6c.02.127.324.168.324.168l1.139-.653a.217.217,0,0,1,.192.148.524.524,0,0,1,0,.267L.491,3.295a.836.836,0,0,0-.186.273,1.414,1.414,0,0,0,0,.452L1.329,6.467l1.14,2.8a.955.955,0,0,0,.736.264c.521,0,.584-.147,1.35-.214a13.835,13.835,0,0,1,1.409-.05V2.03Z" transform="translate(4.913 11.741)" fill="#030504"/>
      <path id="Path_37" data-name="Path 37" d="M0,2.03s.692-.4,1.41-.889A5.638,5.638,0,0,1,3.5.018,2.07,2.07,0,0,1,4.89.439c.615.317.778.356,1,.649A.365.365,0,0,1,5.8,1.6l-.02.013L4.348.814a.334.334,0,0,0-.2.061c-.089.068-.079.267-.079.267l1.8,1.221a.313.313,0,0,1,.1.239c-.021.127-.324.168-.324.168L4.5,2.115a.216.216,0,0,0-.191.148.524.524,0,0,0,0,.267l1.163.764a.838.838,0,0,1,.186.273,1.369,1.369,0,0,1,0,.452L4.636,6.467,3.5,9.27a.954.954,0,0,1-.737.264c-.521,0-.584-.147-1.35-.214A13.849,13.849,0,0,0,0,9.27V2.03Z" transform="translate(10.935 11.741)" fill="#030504"/>
      <path id="Path_38" data-name="Path 38" d="M.214.416C.373.131.569.887.777,1.47c.106.3.189.568.344.53.195-.046.145-.545.3-1a3.937,3.937,0,0,1,.2-.712A.881.881,0,0,1,1.949,0H3.836s.294.028.531.528a6.954,6.954,0,0,1,.293,1.21A.519.519,0,0,0,4.785,2S5.431-.03,5.659.416a6.8,6.8,0,0,1,0,3.368A2.479,2.479,0,0,1,4.388,5.45H1.5a2.017,2.017,0,0,1-.724-.616,2.709,2.709,0,0,1-.563-.99A6.779,6.779,0,0,1,.214.416Z" transform="translate(7.909 14.794)" fill="#fff"/>
    </g>
  </g>
</svg>
